<?xml version="1.0" encoding="utf-8"?>
<!-- Generator: Adobe Illustrator 21.0.0, SVG Export Plug-In . SVG Version: 6.00 Build 0)  -->
<svg version="1.1"
	 id="Layer_1" inkscape:version="0.91 r13725" sodipodi:docname="London_School_of_Economics_Coat_of_Arms.svg" xmlns:cc="http://creativecommons.org/ns#" xmlns:dc="http://purl.org/dc/elements/1.1/" xmlns:inkscape="http://www.inkscape.org/namespaces/inkscape" xmlns:rdf="http://www.w3.org/1999/02/22-rdf-syntax-ns#" xmlns:sodipodi="http://sodipodi.sourceforge.net/DTD/sodipodi-0.dtd" xmlns:svg="http://www.w3.org/2000/svg"
	 xmlns="http://www.w3.org/2000/svg" xmlns:xlink="http://www.w3.org/1999/xlink" x="0px" y="0px" viewBox="0 0 394.2 448.9"
	 style="enable-background:new 0 0 394.2 448.9;" xml:space="preserve">
<style type="text/css">
	.st0{fill:#D9993F;stroke:#000000;stroke-width:3.8128;stroke-linecap:round;stroke-linejoin:round;}
	.st1{stroke:#000000;stroke-width:3.8128;stroke-linecap:round;stroke-linejoin:round;}
	.st2{fill:#FFFFFF;stroke:#000000;stroke-width:2.8596;stroke-linecap:round;stroke-linejoin:round;}
	.st3{fill:#009C1C;stroke:#000000;stroke-width:2.8596;stroke-linecap:round;stroke-linejoin:round;}
	.st4{fill:#942BAB;}
	.st5{fill:#D9993F;stroke:#000000;stroke-width:1.1438;stroke-linecap:round;stroke-linejoin:round;}
	.st6{fill:#B08441;}
	.st7{fill:none;stroke:#942BAB;stroke-width:1.1438;stroke-linecap:round;stroke-linejoin:round;}
	.st8{fill:#D9993F;stroke:#942BAB;stroke-width:1.1438;stroke-linecap:round;stroke-linejoin:round;}
	.st9{fill:#D9993F;stroke:#942BAB;stroke-width:1.1438;}
	.st10{fill:#942BAB;stroke:#942BAB;stroke-width:1.1438;stroke-linecap:round;stroke-linejoin:round;}
	.st11{fill:#942BAB;stroke:#942BAB;stroke-width:1.1438;}
	.st12{fill:#D9993F;stroke:#942BAB;stroke-width:1.6391;stroke-linejoin:round;}
	.st13{fill:none;stroke:#D9993F;stroke-width:1.6391;stroke-linejoin:round;}
	.st14{fill:#D9993F;stroke:#942BAB;stroke-width:0.5719;stroke-linejoin:round;}
	.st15{fill:#B08441;stroke:#942BAB;stroke-width:1.1438;stroke-linecap:round;stroke-linejoin:round;}
	.st16{display:none;fill:#D9993F;stroke:#942BAB;stroke-width:1.1438;stroke-linecap:round;stroke-linejoin:round;}
</style>
<sodipodi:namedview  bordercolor="#666666" borderopacity="1" fit-margin-bottom="0" fit-margin-left="0" fit-margin-right="0" fit-margin-top="0" gridtolerance="10" guidetolerance="10" id="namedview859" inkscape:current-layer="Layer_1" inkscape:cx="239.09489" inkscape:cy="215.16235" inkscape:pageopacity="0" inkscape:pageshadow="2" inkscape:window-height="781" inkscape:window-maximized="0" inkscape:window-width="1280" inkscape:window-x="0" inkscape:window-y="0" inkscape:zoom="0.944" objecttolerance="10" pagecolor="#ffffff" showgrid="false">
	</sodipodi:namedview>
<rect id="rect5" x="44.5" y="1.9" class="st0" width="307.5" height="132.1"/>
<path id="path7" inkscape:connector-curvature="0" class="st1" d="M198.5,397.1C354.1,319.3,352,134.8,352,134.8v-0.7H44.5v0.7
	C44.5,327.2,198.5,397.1,198.5,397.1L198.5,397.1z"/>
<path id="path11" inkscape:connector-curvature="0" class="st2" d="M40.8,257.8c0,0.1,0,0.2,0,0.3c-0.7,3.5-6.7,12.8-9.4,16.7
	c2.6,5.2,6.4,10.8,12,16.7c0.5,0.3,0.9,0.5,1.3,0.7c2.3-2.4,18.2-19,21.8-23.1c0.1-0.1,0.2-0.2,0.3-0.4
	C57.3,276,45.3,266,40.8,257.8L40.8,257.8z"/>
<path id="path13" inkscape:connector-curvature="0" class="st3" d="M59.9,244.6c-9.7-7.2-24.8-5.2-32.7,7.6c-0.2,0.3-0.4,0.6-0.6,1
	c-0.3,5.7,0.6,13.2,4.8,21.6c2.6-3.9,8.7-13.2,9.4-16.7c0-0.1,0-0.2,0-0.3c4.5,8.2,16.6,18.2,25.9,10.9
	C70.1,263.9,69.3,251.6,59.9,244.6L59.9,244.6z"/>
<path id="path15" inkscape:connector-curvature="0" class="st2" d="M83.5,377.2c0.3-9.8-41.3-15.6-60.4-17.8
	c-7.9-0.9-11.4-4.3-12.9-7.8c-0.1,0.2-0.1,0.4-0.2,0.5c-3.2,14.9-8.6,39.1-8.6,39.1c-0.6,2.5,6.7,7.8,8.5,8.6c2.9,1.3,5,0.7,7.6,0.3
	c-2.4-5.3-4.2-12.1-1.5-17.5c5.4-10.5,21-8.9,39.4,0.3C73.9,392.2,83,390.4,83.5,377.2z"/>
<path id="path17" inkscape:connector-curvature="0" class="st2" d="M139.1,355.2c-12.1-13.1-51.7-35.5-65.5-43.1
	c-13.8-7.6-29.3-19.6-29.3-19.6s0.1-0.1,0.3-0.3c-0.4-0.2-0.9-0.5-1.3-0.7c-14.5-15.3-17.3-29-16.8-38.3
	c-7.7,12.9-15.4,34.6-18.7,38.7c-3.4,4.1-4.1,16.2,3.4,23.4c7.6,7.2,38.3,30,54.1,37.2c15.9,7.2,50.7,32.7,51.7,51.4
	c0,0,22.7-17.2,26.5-19.3C147.4,382.5,151.2,368.3,139.1,355.2z"/>
<path id="path19" inkscape:connector-curvature="0" class="st2" d="M15.3,393.2c0,0,9.8,27.1,10.8,32.8c1,5.7-3.3,23.4,27.2,21
	s97.7-10.5,132.5-10.5s143.5,15.7,174.4,9.5c3.8-3.3,19.1-54.3,19.1-54.3s-1.9,19.5-60.1,15.3c-58.1-4.3-94.8-7.1-120.6-7.1
	S100.9,405,80,406S29.6,416.1,15.3,393.2L15.3,393.2z"/>
<path id="path21" inkscape:connector-curvature="0" class="st2" d="M139.1,355.2c-12.1-13.1-51.7-35.5-65.5-43.1
	c-13.8-7.6-29.3-19.6-29.3-19.6s0.1-0.1,0.3-0.3c-0.4-0.2-0.9-0.5-1.3-0.7c-14.5-15.3-17.3-29-16.8-38.3
	c-7.7,12.9-15.4,34.6-18.7,38.7c-3.4,4.1-4.1,16.2,3.4,23.4c7.6,7.2,38.3,30,54.1,37.2c15.9,7.2,50.7,32.7,51.7,51.4
	c0,0,22.7-17.2,26.5-19.3C147.4,382.5,151.2,368.3,139.1,355.2z"/>
<g id="g23" transform="translate(-53.079249,-25.0625)">
	<path id="path25" inkscape:connector-curvature="0" class="st3" d="M118.4,377.5c-3.7-1.7-8.2-4.2-13-7.2
		c-15.6-1.9-39.3-3.1-42.2,6.3c1.4,3.6,4.9,6.9,12.9,7.8c19.1,2.2,60.7,7.9,60.4,17.8c-0.4,13.2-9.5,14.9-28,5.7
		c-18.4-9.2-34-10.8-39.4-0.3c-2.8,5.4-0.9,12.1,1.5,17.5c0.1,0,0.1,0,0.2,0c-1.4-4-2.5-6.9-2.5-6.9c13,20.8,38.4,15.1,58.7,13.2
		c0.5-3.7,2-12.3,5.6-14.6c3.4,0.1,12,7.1,17.5,13.2c6-0.4,12.7-0.8,20-1.2C169,410.2,134.3,384.8,118.4,377.5L118.4,377.5z"/>
	<path id="path27" inkscape:connector-curvature="0" class="st3" d="M170.4,428.8l0.1-0.2c-0.1,0.1-0.2,0.2-0.3,0.2
		C170.3,428.8,170.4,428.8,170.4,428.8z"/>
</g>
<path id="path29" inkscape:connector-curvature="0" class="st2" d="M15.3,393.2c0,0,9.8,27.1,10.8,32.8c1,5.7-3.3,23.4,27.2,21
	s97.7-10.5,132.5-10.5s143.5,15.7,174.4,9.5c3.8-3.3,19.1-54.3,19.1-54.3s-1.9,19.5-60.1,15.3c-58.1-4.3-94.8-7.1-120.6-7.1
	S100.9,405,80,406S29.6,416.1,15.3,393.2L15.3,393.2z"/>
<path id="path31" inkscape:connector-curvature="0" class="st2" d="M353.5,257.8c0,0.1,0,0.2,0,0.3c0.7,3.5,6.7,12.8,9.4,16.7
	c-2.6,5.2-6.4,10.8-12,16.7c-0.5,0.3-0.9,0.5-1.3,0.7c-2.4-2.4-18.2-19-21.8-23.1c-0.1-0.1-0.2-0.2-0.3-0.4
	C336.9,276,348.9,266,353.5,257.8L353.5,257.8z"/>
<path id="path33" inkscape:connector-curvature="0" class="st3" d="M334.4,244.6c9.7-7.2,24.8-5.2,32.7,7.6c0.2,0.3,0.4,0.6,0.6,1
	c0.3,5.7-0.6,13.2-4.8,21.6c-2.6-3.9-8.7-13.2-9.4-16.7c0-0.1,0-0.2,0-0.3c-4.5,8.2-16.6,18.2-25.9,10.9
	C324.1,263.9,325,251.6,334.4,244.6L334.4,244.6z"/>
<path id="path35" inkscape:connector-curvature="0" class="st2" d="M255.1,355.2c12.1-13.1,51.7-35.5,65.5-43.1
	c13.8-7.6,29.3-19.6,29.3-19.6s-0.1-0.1-0.3-0.3c0.4-0.2,0.9-0.5,1.3-0.7c14.5-15.3,17.3-29,16.8-38.3c7.7,12.9,15.4,34.6,18.7,38.7
	c3.4,4.1,4.1,16.2-3.4,23.4c-7.6,7.2-38.3,30-54.1,37.2c-15.9,7.2-50.7,32.7-51.7,51.4c0,0-22.8-17.2-26.5-19.3
	C246.9,382.5,243.1,368.3,255.1,355.2L255.1,355.2z"/>
<path id="path37" inkscape:connector-curvature="0" class="st2" d="M255.1,355.2c12.1-13.1,51.7-35.5,65.5-43.1
	c13.8-7.6,29.3-19.6,29.3-19.6s-0.1-0.1-0.3-0.3c0.4-0.2,0.9-0.5,1.3-0.7c14.5-15.3,17.3-29,16.8-38.3c7.7,12.9,15.4,34.6,18.7,38.7
	c3.4,4.1,4.1,16.2-3.4,23.4c-7.6,7.2-38.3,30-54.1,37.2c-15.9,7.2-50.7,32.7-51.7,51.4c0,0-22.8-17.2-26.5-19.3
	C246.9,382.5,243.1,368.3,255.1,355.2L255.1,355.2z"/>
<path id="path39" inkscape:connector-curvature="0" class="st2" d="M310.8,377.2c-0.3-9.8,41.3-15.6,60.4-17.8
	c7.9-0.9,11.4-4.3,12.9-7.8c0.1,0.2,0.1,0.4,0.2,0.5c3.2,14.9,8.6,39.1,8.6,39.1c0.6,2.5-6.7,7.8-8.5,8.6c-2.9,1.3-5,0.7-7.6,0.3
	c2.4-5.3,4.2-12.1,1.5-17.5c-5.4-10.5-21-8.9-39.4,0.3C320.3,392.2,311.2,390.4,310.8,377.2L310.8,377.2z"/>
<g id="g41" transform="translate(-53.079249,-25.0625)">
	<path id="path43" inkscape:connector-curvature="0" class="st3" d="M382,377.5c3.7-1.7,8.2-4.2,13-7.2c15.6-1.9,39.3-3.1,42.2,6.3
		c-1.4,3.6-4.9,6.9-12.9,7.8c-19.1,2.2-60.7,7.9-60.4,17.8c0.4,13.2,9.5,14.9,28,5.7c18.4-9.2,34-10.8,39.4-0.3
		c2.8,5.4,1,12.1-1.5,17.5c-0.1,0-0.1,0-0.2,0c1.4-4,2.5-6.9,2.5-6.9c-11.9,17.2-35.7,14.3-58.7,13.2c-0.5-3.7-2-12.3-5.6-14.6
		c-3.4,0.1-12,7.1-17.5,13.2c-6-0.4-12.7-0.8-20-1.2C331.4,410.2,366.1,384.8,382,377.5L382,377.5z"/>
	<path id="path45" inkscape:connector-curvature="0" class="st3" d="M330,428.8l-0.1-0.2c0.1,0.1,0.2,0.2,0.3,0.2
		C330.1,428.8,330,428.8,330,428.8L330,428.8z"/>
</g>
<path id="path47" inkscape:connector-curvature="0" class="st2" d="M79.6,391.8c-3.6,2.3-5.1,10.9-5.6,14.6c2.1-0.2,4.1-0.4,6-0.4
	c4-0.2,10-0.5,17.1-1C91.6,398.9,83,392,79.6,391.8z"/>
<path id="path49" inkscape:connector-curvature="0" class="st2" d="M314.7,391.8c3.6,2.3,5.1,10.9,5.6,14.6c-2.1-0.2-4.1-0.4-6-0.4
	c-4-0.2-10-0.5-17.1-1C302.7,398.9,311.2,392,314.7,391.8z"/>
<g id="g51" transform="translate(-53.079249,-25.0625)">
	<path id="path53" inkscape:connector-curvature="0" class="st4" d="M99.7,452.9c0.1-1,0.3-2,0.6-2.9c0.3-0.9,0.8-1.8,1.3-2.7
		c0.6-0.9,1.3-1.8,2.2-2.8c0.6-0.7,1.2-1.3,1.7-1.9c0.6-0.6,1.2-1.2,1.9-1.7c0.7-0.5,1.5-0.9,2.4-1.2c0.9-0.3,1.9-0.6,3.1-0.7
		c0.6-0.1,1.3-0.1,2.2,0c0.9,0.1,1.7,0.2,2.5,0.3c0.8,0.1,1.5,0.3,2,0.5c0.6,0.2,0.9,0.4,0.9,0.6c0,0.3-0.1,0.7-0.4,1.3
		c-0.3,0.6-0.7,1.1-1.1,1.7c-0.4,0.5-0.9,1.2-1.6,2c0-0.2-0.3-0.5-0.7-0.8s-1-0.6-1.7-0.9c-0.7-0.3-1.5-0.5-2.5-0.6
		c-1-0.1-2-0.2-3-0.1c-1.4,0.1-2.5,0.5-3.3,0.9c-0.8,0.5-1.4,1.1-1.9,1.7c-0.4,0.7-0.7,1.4-0.8,2.2c-0.1,0.8-0.2,1.5-0.1,2.3
		c0,0.7,0.1,1.4,0.2,2c0.1,0.6,0.2,1.1,0.2,1.4c0.2,1.6,0.8,3,1.9,4.4c1.1,1.4,2.3,2.5,3.8,3.5c1.5,1,2.9,1.7,4.5,2.2
		c1.5,0.5,2.9,0.7,4,0.6c0.7-0.1,1.3-0.3,1.8-0.7s0.9-0.8,1.2-1.2c0.3-0.4,0.6-0.9,0.8-1.2c0.2-0.4,0.4-0.5,0.5-0.6
		c0.2,0,0,0.4-0.3,1.2c-0.4,0.8-0.9,1.7-1.6,2.7s-1.5,1.9-2.4,2.7c-0.9,0.8-1.8,1.3-2.8,1.4c-1,0.1-2.3-0.1-3.9-0.5
		c-1.6-0.4-3.2-1.1-4.9-2.1c-1.6-1-3.1-2.3-4.4-3.9c-1.3-1.6-2-3.5-2.2-5.7C99.6,455,99.6,453.9,99.7,452.9L99.7,452.9z"/>
	<path id="path55" inkscape:connector-curvature="0" class="st4" d="M127.7,447.4c0.5-1.2,1.1-2.2,1.9-3.1c0.8-0.9,1.6-1.6,2.5-2.3
		c0.9-0.6,1.6-1.2,2.1-1.7c0.3-0.3,0.8-0.8,1.3-1.3c0.6-0.5,1.2-1,1.9-1.5c0.7-0.5,1.6-0.9,2.6-1.3s2.1-0.7,3.4-0.8
		c2-0.2,3.8-0.1,5.4,0.4c1.7,0.5,3.1,1.2,4.4,2.2c1.3,0.9,2.3,2,3.1,3.3c0.8,1.2,1.2,2.5,1.4,3.8c0.1,1.3,0.1,2.6-0.2,4
		c-0.3,1.3-0.8,2.6-1.4,3.9c-0.6,1.3-1.4,2.5-2.4,3.6c-1,1.1-2.1,2.2-3.4,3.1c-0.8,0.6-1.6,1.2-2.4,1.8c-0.8,0.6-1.6,1.2-2.4,1.8
		c-0.8,0.6-1.6,1-2.3,1.4c-0.7,0.4-1.4,0.6-2.1,0.7c-1,0.1-2,0-3-0.4c-1-0.4-2-0.9-3-1.6c-1-0.7-1.9-1.5-2.8-2.4
		c-0.9-0.9-1.7-2-2.4-3c-0.7-1.1-1.3-2.2-1.7-3.3c-0.5-1.1-0.7-2.2-0.9-3.3C127.1,449.9,127.2,448.6,127.7,447.4L127.7,447.4z
		 M147.7,460.2c0.9-0.9,1.8-1.9,2.6-3.2c0.8-1.2,1.4-2.6,1.8-4c0.4-1.4,0.6-2.7,0.4-3.8c-0.1-1.2-0.6-2.5-1.3-3.8
		c-0.7-1.3-1.6-2.4-2.8-3.4c-1.2-1-2.6-1.8-4.2-2.3c-1.6-0.6-3.4-0.7-5.4-0.5c-1.3,0.1-2.4,0.5-3.3,1.1c-0.9,0.6-1.6,1.3-2.2,2.2
		c-0.6,0.9-0.9,1.8-1.1,2.8c-0.2,1-0.2,1.9-0.1,2.8c0.2,1.7,0.8,3.4,1.8,5c1,1.7,2.2,3.1,3.5,4.4c1.3,1.3,2.7,2.4,4,3.1
		c1.4,0.8,2.5,1.1,3.5,1S146.7,461.1,147.7,460.2L147.7,460.2z"/>
	<path id="path57" inkscape:connector-curvature="0" class="st4" d="M163.8,445.4c0.2-1,0.5-2,1-3c0.5-1,1.2-1.9,2.1-2.9
		c0.9-1,2-1.9,3.3-2.9c0.8-0.6,1.5-1.1,2.3-1.7c0.8-0.6,1.6-1.1,2.4-1.5c0.8-0.5,1.7-0.8,2.5-1.2c0.8-0.3,1.7-0.5,2.5-0.6
		c0.5-0.1,1.2-0.1,1.9,0c0.7,0,1.3,0.1,1.9,0.2c0.6,0.1,1.1,0.3,1.5,0.5c0.4,0.2,0.6,0.5,0.7,0.8c0,0.2-0.3,0.6-0.9,1.2
		c-0.7,0.6-1.4,1.2-2.1,1.8c-0.8,0.6-1.4,1.1-2,1.5c-0.5,0.4-0.7,0.5-0.4,0.2c0.2-0.3,0.4-0.5,0.4-0.7c0-0.2-0.1-0.4-0.2-0.6
		c-0.2-0.6-0.7-1-1.7-1.2s-1.9-0.3-3-0.2c-1.6,0.2-2.9,0.6-3.9,1.3c-1,0.7-1.8,1.5-2.3,2.5c-0.6,1-0.9,2-1.1,3.1
		c-0.2,1.1-0.2,2.1-0.1,3.1c0,0.3,0.2,0.9,0.4,1.7s0.5,1.7,0.9,2.6c0.4,1,0.9,1.9,1.5,2.9c0.6,1,1.4,1.9,2.2,2.7
		c0.8,0.8,1.8,1.4,2.8,1.9s2.3,0.6,3.6,0.5c0.9-0.1,1.5-0.4,1.7-0.8c0.2-0.5,0.3-1,0.2-1.6l-0.6-5.4c-0.1-1.1-0.4-1.9-0.8-2.4
		c-0.4-0.6-1-0.8-1.7-0.7c-0.4,0-0.9,0.2-1.3,0.3c0-0.1,0.2-0.3,0.6-0.7s1-0.8,1.6-1.4c0.6-0.5,1.3-1.1,2.1-1.8
		c0.7-0.6,1.4-1.2,2.1-1.7c0.7-0.5,1.2-1,1.7-1.3c0.5-0.4,0.8-0.5,0.8-0.5c-0.1,0.2-0.2,0.4-0.3,0.6c-0.1,0.2-0.2,0.5-0.3,0.9
		c-0.1,0.4-0.1,0.9-0.1,1.4s0,1.3,0.1,2.2l0.7,6.9c0.1,0.8-0.3,1.8-1.2,2.9c-0.9,1.1-1.9,2.2-2.8,3.2c-1.1,1-2,1.9-2.9,2.6
		c-0.9,0.7-1.9,1.1-3,1.3c-1.5,0.2-2.9-0.1-4.4-0.7c-1.5-0.6-2.8-1.6-4-2.8c-1.2-1.2-2.2-2.6-3-4.2c-0.8-1.6-1.3-3.3-1.5-5.2
		C163.6,447.6,163.6,446.5,163.8,445.4L163.8,445.4z"/>
	<path id="path59" inkscape:connector-curvature="0" class="st4" d="M191.7,436.6c-0.2,0-0.3,0.1-0.5,0.1c0-0.1,0.5-0.4,1.4-1
		c0.9-0.6,2-1.3,3.1-2c1.2-0.7,2.3-1.4,3.4-2c1.1-0.6,1.8-0.9,2-0.9c0,0.3,0.2,0.8,0.5,1.5c0.3,0.7,0.9,1.4,1.9,2.2l14.2,11.3
		l-0.8-10.6c0-0.4-0.5-0.7-1.3-0.8s-1.5-0.2-2.1-0.1c0-0.1,0.2-0.3,0.6-0.6c0.4-0.3,0.9-0.7,1.4-1.2c0.6-0.4,1.2-0.9,1.9-1.4
		c0.7-0.5,1.4-0.9,2-1.3s1.2-0.8,1.7-1s0.8-0.4,1-0.4c0,0.5,0,1,0,1.4c0,0.4,0,0.9,0,1.3c0,0.4,0,0.8,0.1,1.3c0,0.4,0.1,0.9,0.1,1.4
		l1.9,24c-0.1,0-0.4-0.1-0.7-0.4c-0.4-0.3-0.8-0.6-1.2-0.9c-0.4-0.4-0.9-0.7-1.4-1.1c-0.5-0.4-0.8-0.7-1.1-0.9l-19-15.5l1.4,17.7
		c0,0.3-0.2,0.8-0.6,1.3c-0.4,0.6-0.9,1.1-1.5,1.7c-0.6,0.5-1.1,1-1.7,1.4c-0.6,0.4-1,0.6-1.2,0.6l-1.7-22.6c0-0.4-0.2-0.7-0.4-1
		c-0.3-0.3-0.6-0.5-0.9-0.7c-0.3-0.2-0.7-0.3-1.1-0.4c-0.4-0.1-0.6-0.1-0.8-0.1C192.1,436.5,191.9,436.5,191.7,436.6L191.7,436.6z"
		/>
	<path id="path61" inkscape:connector-curvature="0" class="st4" d="M233.1,437.1c0.7-1.1,1.4-2,2.4-2.8c0.9-0.8,1.8-1.4,2.8-1.9
		c1-0.5,1.7-0.9,2.4-1.3c0.4-0.3,0.9-0.6,1.5-1s1.3-0.8,2.2-1.1c0.8-0.4,1.7-0.7,2.8-0.9c1-0.2,2.2-0.3,3.4-0.3
		c2,0.1,3.7,0.5,5.3,1.3c1.6,0.8,2.9,1.7,4,2.8c1.1,1.1,1.9,2.4,2.5,3.7c0.6,1.4,0.8,2.7,0.8,4s-0.3,2.6-0.8,3.9
		c-0.5,1.3-1.2,2.5-2,3.6c-0.8,1.2-1.8,2.2-2.9,3.2c-1.1,1-2.4,1.8-3.8,2.5c-0.9,0.4-1.8,0.9-2.7,1.4c-0.9,0.5-1.8,1-2.7,1.4
		c-0.9,0.4-1.7,0.8-2.5,1.1c-0.8,0.3-1.5,0.4-2.2,0.4c-1,0-1.9-0.3-2.9-0.8c-0.9-0.5-1.8-1.2-2.7-2c-0.9-0.8-1.7-1.8-2.4-2.9
		c-0.7-1.1-1.4-2.2-1.9-3.4c-0.5-1.2-0.9-2.4-1.2-3.6c-0.3-1.2-0.4-2.3-0.3-3.4C232.1,439.5,232.5,438.2,233.1,437.1L233.1,437.1z
		 M250.8,452.9c1.1-0.7,2.1-1.6,3.1-2.7c1-1.1,1.8-2.3,2.4-3.6c0.6-1.3,1-2.6,1-3.7c0.1-1.2-0.2-2.5-0.6-3.9
		c-0.5-1.4-1.2-2.7-2.2-3.8c-1-1.2-2.3-2.2-3.8-3c-1.5-0.8-3.3-1.3-5.3-1.3c-1.3-0.1-2.5,0.1-3.4,0.6c-1,0.5-1.8,1.1-2.5,1.8
		c-0.7,0.8-1.2,1.6-1.6,2.5c-0.3,0.9-0.5,1.8-0.6,2.7c-0.1,1.7,0.3,3.5,1,5.2c0.7,1.8,1.7,3.4,2.7,4.9c1.1,1.5,2.2,2.7,3.5,3.7
		c1.2,1,2.3,1.5,3.3,1.5C248.8,454,249.8,453.6,250.8,452.9L250.8,452.9z"/>
	<path id="path63" inkscape:connector-curvature="0" class="st4" d="M272.1,436c0.9-0.9,2-1.8,3.4-2.6c1.4-0.8,2.9-1.5,4.5-2.1
		c1.6-0.6,3.2-0.8,4.6-0.6c0.9,0.1,1.8,0.3,2.7,0.6c0.9,0.3,1.6,0.7,2.3,1s1.2,0.8,1.6,1.1c0.4,0.4,0.6,0.7,0.6,0.9
		c0,0.2-0.3,0.5-0.8,1c-0.5,0.5-1.1,1-1.7,1.5c-0.6,0.5-1.2,1-1.7,1.4c-0.5,0.4-0.8,0.6-0.9,0.6c0.1-0.6,0-1.2-0.2-1.8
		c-0.2-0.6-0.5-1.1-1-1.6c-0.5-0.5-1.2-0.9-2.1-1.3c-0.9-0.4-2-0.6-3.4-0.7c-2.4-0.2-3.6,0.6-3.8,2.3c-0.1,0.8,0.2,1.7,1,2.6
		c0.7,0.9,1.6,1.7,2.8,2.6c1.1,0.9,2.4,1.7,3.7,2.6c1.3,0.9,2.6,1.8,3.7,2.6c1.1,0.9,2.1,1.7,2.8,2.6c0.7,0.9,1,1.7,1,2.5
		c-0.1,0.6-0.3,1.2-0.9,1.7s-1.1,1-1.8,1.5c-0.7,0.4-1.4,0.8-2,1.2c-0.7,0.3-1.2,0.6-1.5,0.8c-0.3,0.2-0.8,0.5-1.4,0.8
		c-0.6,0.4-1.3,0.7-2.1,1.1c-0.8,0.4-1.6,0.7-2.6,0.9c-1,0.2-2,0.3-3.1,0.2c-1.2-0.1-2.3-0.4-3.4-0.8c-1.1-0.4-2-0.9-2.8-1.4
		s-1.4-1.1-1.8-1.7c-0.4-0.6-0.7-1.1-0.6-1.5c0-0.1,0.3-0.4,0.8-0.8c0.5-0.4,1.1-0.8,1.7-1.2c0.6-0.4,1.2-0.8,1.8-1.1
		c0.6-0.3,0.9-0.5,1-0.5c-0.4,0.5-0.6,0.8-0.6,1c0,0.5,0.2,1.1,0.7,1.6c0.5,0.6,1.2,1,2,1.5c0.8,0.4,1.6,0.8,2.6,1.1
		c0.9,0.3,1.8,0.5,2.6,0.6c3.7,0.3,5.7-0.6,5.9-2.7c0.1-0.9-0.2-1.8-1-2.7c-0.7-0.9-1.6-1.8-2.8-2.7c-1.1-0.9-2.4-1.8-3.7-2.7
		c-1.3-0.9-2.6-1.8-3.7-2.6c-1.1-0.9-2.1-1.7-2.8-2.5c-0.7-0.8-1.1-1.6-1-2.3C270.8,437.6,271.2,436.9,272.1,436L272.1,436z"/>
	<path id="path65" inkscape:connector-curvature="0" class="st4" d="M298,444.4c0.3-1,0.6-1.9,1.1-2.7c0.5-0.8,1.1-1.6,1.8-2.4
		c0.7-0.8,1.6-1.5,2.7-2.4c0.7-0.5,1.4-1.1,2.1-1.6c0.7-0.5,1.4-0.9,2.2-1.3c0.8-0.3,1.6-0.6,2.6-0.7c0.9-0.2,2-0.2,3.1-0.1
		c0.6,0.1,1.3,0.2,2.2,0.4c0.8,0.2,1.6,0.5,2.4,0.8c0.7,0.3,1.4,0.6,1.9,0.9c0.5,0.3,0.8,0.5,0.8,0.7c0,0.3-0.3,0.7-0.7,1.2
		c-0.4,0.5-0.9,0.9-1.4,1.4c-0.5,0.5-1.1,1-2,1.7c0-0.2-0.1-0.6-0.5-0.9s-0.8-0.8-1.5-1.2c-0.6-0.4-1.4-0.8-2.3-1.1
		c-0.9-0.3-1.9-0.5-2.9-0.6c-1.4-0.1-2.5,0-3.4,0.3c-0.9,0.3-1.6,0.8-2.2,1.3c-0.6,0.6-1,1.2-1.2,2c-0.3,0.7-0.5,1.5-0.6,2.2
		c-0.1,0.7-0.2,1.4-0.2,2c0,0.6,0,1.1-0.1,1.4c-0.1,1.6,0.2,3.1,1,4.7c0.8,1.5,1.8,2.9,3,4.2c1.2,1.2,2.6,2.3,4,3.1
		c1.4,0.8,2.7,1.3,3.8,1.4c0.7,0.1,1.3,0,1.9-0.3c0.6-0.3,1-0.6,1.4-1s0.7-0.7,1-1c0.3-0.3,0.5-0.5,0.6-0.5c0.2,0,0,0.4-0.6,1.1
		c-0.5,0.7-1.2,1.5-2.1,2.3c-0.9,0.8-1.8,1.6-2.9,2.2c-1.1,0.6-2,0.9-3,0.8c-1-0.1-2.2-0.5-3.7-1.2c-1.5-0.7-3-1.7-4.4-3
		c-1.4-1.3-2.6-2.8-3.5-4.6c-0.9-1.8-1.3-3.8-1.1-6C297.5,446.5,297.7,445.4,298,444.4L298,444.4z"/>
	<path id="path67" inkscape:connector-curvature="0" class="st4" d="M325.8,446.2c0.3-1,0.6-2,1.1-2.7c0.5-0.8,1-1.5,1.6-2
		c0.6-0.6,1.3-1.1,2.1-1.7c0.9-0.6,1.7-1.1,2.6-1.6c0.9-0.5,1.8-1,2.8-1.3c1-0.4,2.1-0.6,3.2-0.8c1.1-0.2,2.5-0.2,3.9-0.1
		c0.6,0.1,1.2,0.2,1.9,0.3c0.6,0.2,1.2,0.4,1.8,0.6c0.5,0.2,1,0.5,1.3,0.8c0.3,0.3,0.5,0.6,0.5,0.8c0,0.2-0.3,0.6-0.7,1.1
		c-0.5,0.5-1,0.9-1.6,1.4c-0.6,0.5-1.1,0.9-1.7,1.2c-0.5,0.3-0.9,0.5-1.1,0.5c0.2-0.3,0.3-0.6,0.3-0.8c0.1-0.9-0.3-1.6-1.2-2
		c-0.9-0.5-2.2-0.8-4-0.9c-2.8-0.2-5.1,0.2-6.7,1.3c-0.6,0.4-1,1-1.3,1.9c-0.3,0.8-0.4,1.7-0.5,2.6c-0.1,0.9-0.1,1.9,0.1,3.2
		c1.1,0,2.5,0,4.2,0c1.7,0,3.4,0.1,5,0.2c1.9,0.2,3.6,0.4,5,0.6c1.4,0.2,2.1,0.4,2.1,0.7c0,0.2-0.3,0.6-0.8,1
		c-0.5,0.4-1.1,0.9-1.9,1.3c-0.7,0.4-1.4,0.8-2,1.1c-0.6,0.3-1,0.5-1.2,0.5c0-0.1,0.1-0.3,0.3-0.4c0.2-0.1,0.3-0.3,0.3-0.6
		c0-0.1,0-0.2-0.1-0.3c-0.1-0.1-0.6-0.2-1.5-0.3c-0.9-0.1-1.9-0.2-3-0.3c-1.4-0.1-3.4-0.3-5.8-0.5c0.4,1.1,0.9,2.2,1.7,3.5
		c0.8,1.2,1.7,2.4,2.7,3.5c1,1.1,2.1,2,3.2,2.7c1.1,0.8,2.3,1.2,3.4,1.3c1,0.1,1.9,0,2.6-0.3c0.7-0.3,1.3-0.6,2-1
		c0.1-0.1,0.1,0-0.1,0.3c-0.2,0.2-0.5,0.5-1,0.9c-0.4,0.3-1,0.7-1.5,1.2c-0.6,0.4-1.2,0.8-1.8,1.2c-0.6,0.3-1.3,0.6-1.9,0.8
		c-0.6,0.2-1.2,0.3-1.8,0.3c-1.6-0.1-3.2-0.7-4.8-1.8c-1.6-1.1-3-2.3-4.3-3.8c-1.3-1.5-2.3-3.1-3-4.8c-0.8-1.7-1.1-3.3-1-4.8
		C325.4,448.5,325.6,447.2,325.8,446.2L325.8,446.2z"/>
	<path id="path69" inkscape:connector-curvature="0" class="st4" d="M354.9,443.2c0-0.2-0.1-0.4-0.2-0.5c-0.2-0.2-0.4-0.3-0.6-0.3
		c-0.3,0-0.6,0-1.1,0.1c-0.5,0.1-0.9,0.2-1.1,0.3c0,0,0.2-0.2,0.7-0.5c0.5-0.3,1-0.6,1.7-1c0.7-0.4,1.4-0.8,2.2-1.3
		c0.8-0.5,1.6-0.9,2.3-1.3c0.7-0.4,1.3-0.7,1.8-0.9c0.5-0.2,0.8-0.4,0.9-0.4c-0.3,0.9-0.6,1.8-0.8,2.7c-0.2,0.9-0.3,1.7-0.3,2.3
		c0.7-0.5,1.6-1.1,2.4-1.6c0.9-0.5,1.8-1,2.7-1.4c0.9-0.4,1.8-0.8,2.7-1c0.9-0.3,1.6-0.4,2.3-0.3c1.1,0.1,2.1,0.3,3,0.8
		c0.9,0.5,1.7,1,2.3,1.6c0.6,0.6,1.1,1.4,1.4,2.1c0.3,0.8,0.5,1.5,0.4,2.2c-0.1,1.3-0.7,2.4-1.7,3.4c-1.1,1-2.3,1.8-3.6,2.5
		c-1.3,0.7-2.5,1.2-3.6,1.5c-1.1,0.4-1.8,0.5-2,0.5c0.9,0.5,1.9,1.3,3,2.1c1.1,0.9,2.1,1.9,3,3.1c0.9,1.2,1.7,2.5,2.3,3.9
		c0.6,1.4,0.9,2.9,0.8,4.5c0,0.1-0.3,0.4-0.8,0.8c-0.6,0.5-1.2,1-1.9,1.5c-0.7,0.5-1.3,1-1.9,1.4c-0.6,0.4-1,0.6-1.1,0.6
		c0.1-0.1,0.2-0.5,0.3-1c0.1-0.5,0.2-1,0.2-1.5c0.1-1.5-0.3-3-1.2-4.6c-0.9-1.6-2-3.1-3.2-4.4c-1.2-1.3-2.4-2.4-3.5-3.3
		c-1.2-0.9-1.9-1.3-2.3-1.4c-0.4,0-0.7,0.1-0.7,0.2l-0.6,9c0,0.3-0.3,0.7-0.8,1.2c-0.5,0.5-1.1,1-1.8,1.4c-0.7,0.5-1.3,0.9-1.9,1.2
		c-0.6,0.3-1,0.5-1.1,0.5L354.9,443.2L354.9,443.2z M363.7,441.5c-0.7,0.3-1.4,0.7-1.9,1.2c-0.5,0.5-0.9,0.9-1.2,1.4
		c-0.3,0.5-0.4,0.8-0.4,1.1l-0.5,8.9c0.1,0,0.3,0,0.6-0.2c0.3-0.1,0.7-0.3,1.1-0.5c0.4-0.2,0.8-0.4,1.3-0.7c0.4-0.3,0.8-0.5,1.1-0.8
		c0.4,0,1,0,2,0c0.9,0,1.9-0.1,2.9-0.4c1-0.3,1.8-0.8,2.6-1.5c0.8-0.7,1.2-1.7,1.3-3.1c0-0.5-0.1-1.1-0.3-1.8c-0.2-0.7-0.6-1.4-1-2
		c-0.5-0.6-1.1-1.2-1.9-1.6c-0.8-0.4-1.8-0.7-3-0.7C365.3,441,364.4,441.1,363.7,441.5L363.7,441.5z"/>
	<path id="path71" inkscape:connector-curvature="0" class="st4" d="M382.2,450.3c0.2-1.1,0.5-2,0.8-2.8c0.4-0.8,0.8-1.5,1.4-2.2
		c0.5-0.6,1.2-1.3,2-1.8c0.8-0.6,1.6-1.3,2.5-1.9s1.7-1.1,2.7-1.6c1-0.4,2-0.8,3.1-1.1c1.1-0.3,2.4-0.4,3.9-0.4
		c0.6,0,1.2,0.1,1.9,0.2s1.3,0.3,1.8,0.5c0.6,0.2,1,0.4,1.4,0.7c0.4,0.3,0.5,0.5,0.5,0.8c0,0.2-0.2,0.6-0.6,1.1
		c-0.4,0.5-0.9,1-1.4,1.5c-0.5,0.5-1.1,1-1.6,1.3s-0.8,0.6-1.1,0.6c0.2-0.3,0.2-0.6,0.2-0.9c0-0.9-0.5-1.5-1.4-1.9
		c-0.9-0.4-2.3-0.6-4-0.6c-2.9,0-5,0.7-6.6,1.9c-0.5,0.5-0.9,1.1-1.1,2c-0.2,0.9-0.3,1.7-0.3,2.6c0,0.9,0.1,1.9,0.3,3.2
		c1.1-0.1,2.5-0.2,4.2-0.3c1.7-0.1,3.4-0.2,5-0.2c1.9,0,3.6,0,5,0.1c1.4,0.1,2.1,0.3,2.1,0.5c0,0.2-0.2,0.6-0.7,1.1
		c-0.5,0.5-1.1,1-1.7,1.5c-0.7,0.5-1.3,0.9-1.8,1.3c-0.6,0.4-0.9,0.6-1.1,0.6c0-0.2,0.1-0.3,0.2-0.5c0.2-0.2,0.2-0.4,0.2-0.6
		c0-0.1,0-0.2-0.1-0.3c-0.1-0.1-0.6-0.1-1.6-0.2c-0.9,0-2,0-3,0c-1.4,0-3.4,0-5.8,0.1c0.4,1,1.1,2.1,2,3.3c0.9,1.2,1.9,2.2,3,3.2
		c1.1,1,2.3,1.8,3.5,2.4c1.2,0.6,2.4,1,3.5,1c1,0,1.9-0.2,2.5-0.5c0.6-0.4,1.3-0.8,1.9-1.2c0.1-0.1,0.1,0-0.1,0.3
		c-0.2,0.2-0.5,0.6-0.9,0.9c-0.4,0.4-0.9,0.8-1.4,1.3c-0.5,0.5-1.1,0.9-1.7,1.3c-0.6,0.4-1.2,0.7-1.8,1c-0.6,0.3-1.2,0.4-1.7,0.4
		c-1.6,0-3.2-0.4-4.9-1.3c-1.7-0.9-3.2-2-4.6-3.4c-1.4-1.4-2.5-2.9-3.4-4.5c-0.9-1.6-1.4-3.2-1.4-4.7
		C381.9,452.6,382,451.4,382.2,450.3L382.2,450.3z"/>
</g>
<g id="g73" transform="translate(-53.079249,-25.0625)">
	<path id="path75" inkscape:connector-curvature="0" class="st4" d="M81.9,315.8c0.1-0.1,0.2-0.3,0.2-0.5c0-0.2-0.1-0.4-0.2-0.5
		c-0.2-0.1-0.4-0.3-0.7-0.4c-0.3-0.1-0.6-0.2-0.8-0.3c0,0,0.2,0,0.7,0s1,0,1.6,0.1c0.6,0,1.3,0.1,2,0.1c0.7,0,1.4,0.1,2,0.1
		c0.6,0.1,1.2,0.1,1.6,0.2c0.4,0.1,0.7,0.1,0.7,0.2c-0.7,0.5-1.3,1-1.9,1.5c-0.6,0.5-1.1,1-1.5,1.5c0.7,0,1.5,0,2.3,0
		c0.8,0,1.6,0.1,2.4,0.2c0.8,0.1,1.5,0.3,2.2,0.5c0.7,0.2,1.2,0.5,1.5,0.8c0.6,0.5,1.1,1.2,1.4,1.9c0.3,0.7,0.5,1.4,0.5,2.2
		c0,0.7-0.1,1.4-0.3,2.1c-0.2,0.7-0.5,1.2-0.9,1.7c-0.7,0.8-1.7,1.4-2.9,1.6c-1.2,0.2-2.3,0.2-3.5,0.1c-1.1-0.1-2.1-0.3-3-0.6
		c-0.9-0.3-1.4-0.4-1.5-0.5c0.3,0.8,0.5,1.7,0.6,2.8c0.2,1.1,0.2,2.3,0.1,3.5c-0.1,1.2-0.3,2.5-0.7,3.7c-0.4,1.3-1,2.4-1.9,3.4
		c-0.1,0.1-0.4,0.1-1,0.2c-0.6,0.1-1.2,0.1-1.9,0.2c-0.7,0-1.3,0.1-1.9,0.1c-0.6,0-0.9,0-1-0.1c0.1,0,0.4-0.2,0.7-0.5
		c0.3-0.3,0.7-0.6,1-1c0.8-1,1.4-2.2,1.7-3.8c0.3-1.5,0.4-3,0.4-4.5c0-1.5-0.1-2.7-0.3-3.9c-0.2-1.1-0.5-1.8-0.7-2
		c-0.3-0.2-0.4-0.3-0.5-0.1l-5.1,5.9c-0.2,0.2-0.6,0.4-1.2,0.5c-0.6,0.1-1.2,0.2-1.8,0.2c-0.7,0-1.2,0-1.8,0c-0.5,0-0.8-0.1-0.9-0.2
		L81.9,315.8L81.9,315.8z M88.1,318.6c-0.6-0.1-1.2-0.1-1.8,0c-0.6,0.1-1,0.2-1.5,0.4c-0.4,0.2-0.7,0.4-0.8,0.6l-5.1,5.9
		c0.1,0.1,0.2,0.1,0.5,0.2c0.3,0.1,0.6,0.1,0.9,0.2c0.4,0.1,0.7,0.1,1.1,0.1c0.4,0,0.7,0,1.1,0c0.2,0.2,0.6,0.5,1.2,0.9
		c0.6,0.4,1.2,0.7,2,1c0.7,0.3,1.5,0.3,2.4,0.2c0.8-0.1,1.6-0.7,2.4-1.6c0.3-0.3,0.5-0.8,0.8-1.3s0.4-1.2,0.4-1.8
		c0-0.6-0.1-1.3-0.3-2c-0.2-0.7-0.7-1.3-1.4-1.8C89.3,318.9,88.7,318.7,88.1,318.6L88.1,318.6z"/>
	<path id="path77" inkscape:connector-curvature="0" class="st4" d="M95.5,333.6c0.7-0.7,1.3-1.2,2-1.6c0.7-0.4,1.3-0.7,2-0.9
		c0.7-0.2,1.4-0.3,2.1-0.4c0.8-0.1,1.6-0.1,2.4-0.2c0.8,0,1.6,0,2.4,0.1c0.8,0.1,1.6,0.4,2.4,0.7c0.8,0.3,1.7,0.8,2.5,1.5
		c0.4,0.3,0.7,0.6,1,1c0.3,0.4,0.6,0.8,0.8,1.2c0.2,0.4,0.4,0.7,0.5,1.1c0.1,0.3,0,0.6-0.1,0.8c-0.1,0.2-0.4,0.3-1,0.5
		s-1.1,0.3-1.7,0.4c-0.6,0.1-1.1,0.2-1.6,0.2c-0.5,0-0.8,0-0.9-0.1c0.3-0.2,0.5-0.3,0.6-0.5c0.5-0.6,0.5-1.3,0.2-2
		c-0.4-0.7-1.1-1.4-2.1-2.2c-1.7-1.3-3.4-1.9-4.9-1.7c-0.6,0.1-1.1,0.4-1.7,0.9c-0.6,0.5-1.1,1.1-1.6,1.7c-0.4,0.6-0.9,1.4-1.5,2.4
		c0.7,0.4,1.6,1,2.7,1.7s2.1,1.4,3.1,2.1c1.2,0.9,2.1,1.7,2.9,2.4c0.8,0.7,1.1,1.1,1,1.3c-0.1,0.2-0.5,0.3-1,0.4
		c-0.5,0.1-1.1,0.2-1.8,0.2c-0.7,0.1-1.3,0.1-1.8,0.1c-0.5,0-0.9,0-1-0.1c0.1-0.1,0.2-0.2,0.4-0.2c0.2,0,0.3-0.1,0.5-0.3
		c0.1-0.1,0.1-0.2,0.1-0.2c0-0.1-0.3-0.4-0.8-0.8c-0.5-0.4-1.1-0.9-1.8-1.4c-0.9-0.6-2-1.5-3.5-2.6c-0.3,0.9-0.5,2-0.6,3.2
		c-0.1,1.2-0.1,2.4,0.1,3.6c0.1,1.2,0.4,2.3,0.8,3.3c0.4,1,0.9,1.8,1.6,2.2c0.6,0.5,1.2,0.7,1.8,0.8c0.6,0,1.2,0.1,1.8,0
		c0.1,0,0,0.1-0.2,0.1c-0.2,0.1-0.6,0.2-1,0.2s-1,0.2-1.5,0.2c-0.6,0.1-1.1,0.1-1.7,0.1c-0.6,0-1.1,0-1.6-0.1s-0.9-0.3-1.3-0.5
		c-1-0.7-1.7-1.8-2.2-3.2c-0.5-1.4-0.8-2.9-0.9-4.5c-0.1-1.6,0-3.1,0.3-4.7s0.9-2.8,1.7-3.9C94.1,335.1,94.8,334.3,95.5,333.6
		L95.5,333.6z"/>
	<path id="path79" inkscape:connector-curvature="0" class="st4" d="M115.7,342.8c0.1-0.1,0.1-0.3,0.1-0.5c0-0.2-0.1-0.3-0.3-0.5
		c-0.2-0.1-0.4-0.2-0.8-0.3c-0.4-0.1-0.6-0.2-0.9-0.2c0,0,0.2-0.1,0.7-0.1c0.4-0.1,0.9-0.1,1.6-0.2c0.6,0,1.3-0.1,2-0.2
		c0.7-0.1,1.4-0.1,2-0.1c0.6,0,1.2-0.1,1.6-0.1c0.4,0,0.7,0,0.8,0.1c-0.6,0.6-1.2,1.1-1.7,1.7c-0.5,0.6-0.9,1.2-1.2,1.6
		c0.7-0.1,1.5-0.2,2.3-0.3c0.8-0.1,1.6-0.1,2.4-0.1c0.8,0,1.5,0.1,2.2,0.2c0.7,0.1,1.2,0.3,1.6,0.6c0.7,0.4,1.2,1,1.6,1.7
		c0.4,0.7,0.7,1.4,0.8,2.1c0.1,0.7,0.1,1.4,0,2.1c-0.1,0.7-0.3,1.3-0.6,1.8c-0.6,0.9-1.5,1.6-2.6,2c-1.1,0.4-2.3,0.6-3.4,0.6
		c-1.2,0-2.2,0-3.1-0.1c-0.9-0.1-1.4-0.2-1.5-0.3c0.4,0.7,0.7,1.6,1,2.7c0.3,1.1,0.5,2.2,0.6,3.4c0.1,1.2,0,2.5-0.2,3.8
		c-0.2,1.3-0.7,2.5-1.4,3.7c0,0.1-0.3,0.2-0.9,0.3c-0.6,0.2-1.2,0.3-1.9,0.5c-0.7,0.1-1.3,0.3-1.9,0.4c-0.6,0.1-0.9,0.1-1,0.1
		c0.1-0.1,0.4-0.3,0.7-0.6c0.3-0.4,0.6-0.7,0.8-1.1c0.7-1.1,1.1-2.4,1.2-4c0.1-1.5,0-3-0.2-4.5c-0.2-1.4-0.5-2.7-0.9-3.8
		c-0.4-1.1-0.7-1.7-0.9-1.9c-0.3-0.2-0.5-0.2-0.5-0.1l-4.2,6.6c-0.2,0.2-0.5,0.5-1.1,0.6c-0.6,0.2-1.2,0.3-1.8,0.5
		c-0.6,0.1-1.2,0.2-1.8,0.2c-0.5,0-0.9,0-1,0L115.7,342.8z M122.2,344.6c-0.6,0-1.2,0-1.7,0.2c-0.5,0.2-1,0.4-1.4,0.6
		c-0.4,0.2-0.6,0.5-0.8,0.7l-4.2,6.6c0.1,0,0.2,0.1,0.5,0.1c0.3,0,0.6,0,0.9,0c0.4,0,0.7,0,1.1,0c0.4,0,0.7-0.1,1-0.2
		c0.2,0.2,0.7,0.4,1.3,0.7c0.6,0.3,1.3,0.6,2.1,0.7c0.8,0.1,1.5,0.1,2.3-0.2c0.8-0.3,1.5-0.9,2.2-1.9c0.2-0.4,0.4-0.8,0.6-1.4
		c0.2-0.6,0.2-1.2,0.2-1.9c-0.1-0.6-0.2-1.3-0.6-1.9c-0.3-0.6-0.9-1.2-1.7-1.6C123.5,344.8,122.8,344.7,122.2,344.6L122.2,344.6z"/>
	<path id="path81" inkscape:connector-curvature="0" class="st4" d="M135.3,356.4c0.1-0.4,0-0.7-0.1-0.9c-0.1-0.3-0.3-0.5-0.6-0.7
		c-0.3-0.2-0.5-0.4-0.9-0.6c0,0,0.2-0.1,0.7-0.1c0.5-0.1,1-0.1,1.7-0.2c0.7-0.1,1.4-0.2,2.1-0.2c0.8-0.1,1.5-0.2,2.2-0.2
		c0.7-0.1,1.3-0.1,1.8-0.1c0.5,0,0.8,0,0.8,0c-0.4,0.4-0.8,0.8-1.3,1.3c-0.5,0.5-0.9,0.9-1.2,1.4l-4.8,7.8c-0.5,0.8-1,1.7-1.4,2.8
		s-0.7,2.1-0.9,3.1c-0.2,1-0.3,1.9-0.2,2.7c0.1,0.8,0.3,1.3,0.8,1.6c0.1,0.1,0.5,0,1.2-0.1c0.7-0.1,1.5-0.3,2.3-0.6
		c0.8-0.3,1.7-0.6,2.5-1.1c0.8-0.4,1.4-0.9,1.8-1.5l4.6-7.4c0.1-0.1,0.1-0.2,0.2-0.4c0.1-0.2,0.1-0.4,0.1-0.6s-0.1-0.4-0.1-0.7
		c-0.1-0.2-0.3-0.4-0.5-0.5c-0.2-0.1-0.5-0.2-0.8-0.3c0,0,0.2-0.1,0.7-0.1c0.4-0.1,1-0.1,1.7-0.1c0.7,0,1.4-0.1,2.1-0.2
		c0.8-0.1,1.5-0.1,2.1-0.1c0.7,0,1.2-0.1,1.7-0.1c0.5,0,0.7,0,0.8,0c-0.5,0.4-1,0.8-1.6,1.3c-0.6,0.5-1.3,1.4-2,2.5l-7.4,12.1
		c-0.5,0.9-0.8,1.5-0.9,2c0,0.4,0.1,0.8,0.5,1c0.2,0.1,0.5,0.2,0.9,0.3c0.4,0,0.9,0.1,1.4,0.1c-0.1,0.1-0.4,0.2-1.1,0.4
		c-0.7,0.1-1.4,0.3-2.2,0.4s-1.6,0.2-2.3,0.2c-0.7,0.1-1.1,0-1.3,0c-0.2-0.1-0.3-0.4-0.3-0.9c0-0.4,0.1-1,0.2-1.6
		c0.1-0.6,0.4-1.3,0.6-2c0.3-0.7,0.6-1.4,1-2c-0.2,0.1-0.8,0.3-1.8,0.6c-0.9,0.2-2,0.4-3.1,0.6c-1.1,0.2-2.2,0.2-3.3,0.3
		c-1,0-1.7-0.1-2.1-0.3c-0.5-0.3-0.9-0.8-1.1-1.3c-0.2-0.6-0.3-1.2-0.3-1.9c0-0.7,0.1-1.4,0.4-2.2c0.2-0.8,0.5-1.5,0.7-2.3
		c0.3-0.7,0.6-1.4,0.9-2.1c0.3-0.6,0.6-1.2,0.9-1.6l3.6-5.9C135,357.2,135.2,356.8,135.3,356.4L135.3,356.4z"/>
	<path id="path83" inkscape:connector-curvature="0" class="st4" d="M163.2,393.2c-1.2,0.5-2.3,0.8-3.1,0.9
		c-0.8,0.1-1.4,0.1-1.7,0.1s-0.5-0.1-0.5-0.1c-0.1-0.1-0.2-0.2-0.3-0.4c-0.1-0.2-0.1-0.4,0-0.7l5.6-16.4l-12.7,7.5
		c-0.5,0.3-1.1,0.5-1.9,0.5c-0.8,0-1.5,0-2.3,0c-0.8,0-1.7-0.2-2.8-0.4c2.1-0.8,3.9-1.6,5.4-2.5l15.5-9.7c0-0.4,0-0.7-0.1-1.1
		c-0.1-0.4-0.3-0.7-0.7-1.1c-0.3-0.3-0.7-0.5-1-0.6c-0.3-0.1-0.7-0.3-1.1-0.5l7.6,1.7l-6.9,20.6c0.3-0.1,0.5-0.1,0.8-0.2
		c0.2-0.1,0.5-0.1,0.7-0.2l15.2-6.7c0.2-0.5,0.3-1,0.4-1.5c0.8,0.1,1.4,0.2,1.9,0.3c0.5,0.1,1,0.2,1.5,0.3c0.5,0.1,0.8,0.3,1,0.4
		L173.5,406c-1,0.1-1.7,0.1-2.4,0.2c-0.6,0-1.2,0-1.8-0.1c-0.6-0.1-1-0.2-1.2-0.4c0.4-0.3,0.8-0.7,1-1.2l8.3-17.4L163.2,393.2
		L163.2,393.2z"/>
</g>
<g id="g85" transform="translate(-53.079249,-25.0625)">
	<path id="path87" inkscape:connector-curvature="0" class="st4" d="M310.9,403.1c-0.5-0.8-1-1.6-1.3-2.5c-0.3-0.9-0.5-1.8-0.7-2.7
		c-0.1-1-0.2-2-0.2-3.3c0-0.8,0-1.6,0-2.3c0-0.8,0.1-1.5,0.3-2.2c0.2-0.7,0.5-1.4,0.9-2.1c0.4-0.7,1-1.4,1.7-2
		c0.4-0.3,0.9-0.7,1.5-1.1c0.6-0.4,1.2-0.7,1.8-1c0.6-0.3,1.2-0.5,1.7-0.6c0.5-0.1,0.8-0.1,0.9,0c0.2,0.2,0.4,0.6,0.5,1.2
		c0.1,0.6,0.2,1.2,0.2,1.8c0.1,0.6,0.1,1.4,0.1,2.3c-0.2-0.2-0.5-0.3-0.9-0.3c-0.5,0-1,0-1.6,0.1c-0.6,0.1-1.3,0.4-2,0.7
		c-0.7,0.4-1.4,0.8-2.1,1.4c-0.8,0.8-1.4,1.5-1.7,2.3c-0.3,0.8-0.3,1.5-0.2,2.2c0.1,0.7,0.4,1.4,0.7,2.1c0.4,0.7,0.8,1.2,1.2,1.8
		c0.4,0.5,0.9,1,1.3,1.4c0.4,0.4,0.8,0.7,1,1c1,1.1,2.3,1.9,3.9,2.5c1.5,0.5,3.1,0.8,4.6,0.8c1.6,0,3-0.1,4.4-0.5
		c1.3-0.4,2.4-0.9,3-1.5c0.4-0.4,0.7-0.9,0.8-1.4c0.1-0.5,0.1-1,0.1-1.5c-0.1-0.5-0.1-0.9-0.2-1.3c-0.1-0.4-0.1-0.6,0-0.7
		c0.1-0.1,0.3,0.3,0.5,1.1c0.2,0.8,0.4,1.7,0.5,2.8c0.1,1.1,0.1,2.2,0,3.3c-0.1,1.1-0.5,1.9-1,2.4c-0.6,0.6-1.6,1.1-2.9,1.5
		c-1.3,0.5-2.9,0.7-4.6,0.8c-1.7,0-3.4-0.2-5.2-0.8c-1.8-0.6-3.4-1.7-4.9-3.3C312.1,404.7,311.4,403.9,310.9,403.1L310.9,403.1z"/>
	<path id="path89" inkscape:connector-curvature="0" class="st4" d="M338.8,399.4c0,0.2,0,0.5-0.2,0.9c-0.2,0.4-0.4,0.9-0.6,1.4
		c-0.3,0.5-0.5,1-0.8,1.4c-0.3,0.4-0.5,0.7-0.6,0.8c0.3-1.3,0.4-2.8,0.2-4.6c-0.1-1.8-0.4-3.6-0.8-5.5c-0.4-1.9-0.8-3.8-1.4-5.7
		c-0.5-1.9-1-3.7-1.5-5.3c-0.5-1.6-1-3-1.4-4.2c-0.4-1.2-0.7-1.9-0.9-2.4c-0.5,0-0.8,0.1-0.9,0.2c-0.2,0.2-0.4,0.4-0.5,0.7
		c-0.1,0.3-0.3,0.6-0.5,0.7c0,0,0-0.3,0.1-0.9c0.1-0.5,0.2-1.1,0.4-1.8c0.2-0.7,0.3-1.4,0.5-2.1c0.2-0.7,0.3-1.3,0.4-1.7
		c0.1-0.4,0.2-0.7,0.2-0.7c0.2-0.1,0.9,0,2.2,0.5c1.3,0.5,2.8,1.1,4.6,2c1.8,0.8,3.7,1.8,5.8,2.8c2,1,4,2,5.8,3
		c1.8,1,3.3,1.8,4.6,2.5c1.2,0.7,2,1.2,2.1,1.5c0.1,0.2,0.2,0.5,0.2,1.1c0,0.5,0,1.1,0.1,1.8c0.2,0.6,0.4,1.2,0.6,1.8
		c0.2,0.6,0.2,1-0.2,1.3c-0.8-0.3-1.4-0.5-1.9-0.8l-10.5-5.5c-0.2,0.9-0.5,1.9-0.9,3c-0.4,1.1-1.1,2-2,2.7l-4.3,3.2L338.8,399.4
		L338.8,399.4z M332.7,376.6l3,11.5l6-4.6c0.3-0.2,0.5-0.4,0.8-0.6c0.3-0.2,0.5-0.5,0.7-0.7L332.7,376.6L332.7,376.6z"/>
	<path id="path91" inkscape:connector-curvature="0" class="st4" d="M350.6,365.4c-0.3-0.2-0.7-0.4-1-0.4c-0.3,0-0.7,0-1,0.2
		s-0.7,0.3-1,0.5c0,0,0.1-0.3,0.2-0.8c0.2-0.5,0.4-1.1,0.6-1.8c0.2-0.7,0.5-1.4,0.8-2.3c0.3-0.8,0.6-1.6,0.9-2.3
		c0.3-0.7,0.5-1.3,0.8-1.8c0.2-0.5,0.4-0.8,0.5-0.8c0.2,0.5,0.4,1.2,0.6,1.9c0.2,0.7,0.5,1.4,0.8,1.9l5.4,8.7
		c0.6,0.9,1.3,1.8,2.1,2.8c0.8,0.9,1.7,1.8,2.6,2.5c0.9,0.7,1.7,1.2,2.5,1.5c0.8,0.3,1.5,0.3,2,0c0.1-0.1,0.3-0.5,0.5-1.2
		c0.2-0.8,0.4-1.6,0.6-2.6c0.1-1,0.2-2,0.2-3c0-1-0.2-1.9-0.6-2.5l-5.1-8.2c-0.1-0.1-0.2-0.2-0.3-0.4c-0.2-0.2-0.3-0.3-0.6-0.4
		c-0.2-0.1-0.5-0.2-0.7-0.2c-0.3,0-0.5,0.1-0.8,0.2c-0.2,0.1-0.5,0.4-0.7,0.6c0,0,0.1-0.3,0.2-0.7c0.2-0.5,0.4-1,0.7-1.7
		c0.3-0.7,0.6-1.4,0.9-2.2c0.3-0.8,0.6-1.5,0.9-2.2c0.3-0.7,0.5-1.2,0.8-1.7c0.2-0.5,0.4-0.7,0.4-0.7c0.1,0.6,0.3,1.4,0.5,2.3
		c0.2,0.9,0.7,1.9,1.5,3.2l8.3,13.4c0.6,1,1.1,1.6,1.5,1.8c0.4,0.3,0.8,0.2,1.2,0c0.2-0.1,0.5-0.4,0.7-0.8c0.2-0.4,0.5-0.8,0.8-1.4
		c0.1,0.1,0,0.5-0.2,1.3c-0.2,0.7-0.4,1.5-0.7,2.4c-0.3,0.9-0.6,1.7-0.9,2.4c-0.3,0.7-0.5,1.2-0.7,1.3c-0.2,0.1-0.6,0.1-1-0.1
		c-0.4-0.2-0.9-0.6-1.5-1c-0.6-0.5-1.1-1-1.7-1.6c-0.6-0.6-1-1.3-1.5-2c0,0.3-0.1,1-0.3,2c-0.2,1.1-0.6,2.2-1,3.4
		c-0.4,1.2-0.8,2.3-1.3,3.4c-0.5,1-0.9,1.7-1.3,1.9c-0.6,0.4-1.2,0.5-1.9,0.4c-0.7-0.1-1.3-0.3-2-0.7c-0.7-0.4-1.4-0.9-2-1.4
		c-0.7-0.6-1.3-1.2-1.9-1.8c-0.6-0.6-1.1-1.3-1.6-1.9c-0.5-0.6-0.9-1.2-1.2-1.7l-4.1-6.5C351.3,366,350.9,365.6,350.6,365.4
		L350.6,365.4z"/>
	<path id="path93" inkscape:connector-curvature="0" class="st4" d="M373.1,350.1c0.1-1.1,0.3-2.4,0.7-3.8c0.4-1.4,1-2.7,1.7-3.9
		c0.7-1.3,1.6-2.2,2.7-2.9c0.7-0.4,1.4-0.7,2.1-0.9c0.8-0.2,1.5-0.3,2.1-0.4c0.7,0,1.2,0,1.7,0.1c0.5,0.1,0.8,0.2,0.9,0.4
		c0.1,0.1,0.1,0.5,0.1,1.2c-0.1,0.6-0.1,1.3-0.3,2c-0.1,0.7-0.2,1.4-0.4,1.9c-0.1,0.6-0.2,0.9-0.2,0.9c-0.3-0.5-0.7-0.9-1.1-1.3
		c-0.5-0.4-1-0.6-1.6-0.7c-0.6-0.1-1.3-0.1-2.1,0.1c-0.8,0.2-1.7,0.6-2.6,1.2c-1.7,1-2,2.3-1.1,3.7c0.4,0.7,1.1,1.2,2.1,1.5
		c1,0.3,2.1,0.5,3.3,0.6c1.2,0.1,2.6,0.1,3.9,0.1c1.4,0,2.7,0.1,3.9,0.1c1.2,0.1,2.4,0.3,3.3,0.6c1,0.3,1.7,0.8,2.1,1.5
		c0.3,0.5,0.5,1.1,0.4,1.8c0,0.7-0.1,1.4-0.3,2.1c-0.2,0.7-0.4,1.4-0.7,2c-0.2,0.6-0.4,1.1-0.5,1.4c-0.1,0.3-0.3,0.8-0.5,1.4
		c-0.2,0.6-0.4,1.2-0.7,1.9c-0.3,0.7-0.7,1.4-1.2,2c-0.5,0.7-1.1,1.3-1.9,1.7c-0.9,0.5-1.8,0.9-2.7,1.1c-0.9,0.2-1.8,0.3-2.6,0.3
		c-0.8,0-1.5-0.1-2.2-0.3c-0.6-0.2-1-0.5-1.3-0.8c-0.1-0.1,0-0.4,0.1-1c0.1-0.6,0.2-1.2,0.4-1.8c0.2-0.6,0.4-1.2,0.5-1.8
		c0.2-0.5,0.3-0.8,0.4-0.9c0,0.6,0.1,0.9,0.2,1.1c0.3,0.5,0.8,0.8,1.4,0.9c0.7,0.2,1.4,0.2,2.2,0.1c0.8-0.1,1.5-0.2,2.3-0.5
		c0.8-0.3,1.5-0.6,2.1-0.9c2.6-1.7,3.4-3.4,2.3-5.1c-0.5-0.7-1.2-1.3-2.2-1.6c-1-0.3-2.1-0.6-3.4-0.7c-1.3-0.1-2.6-0.2-4-0.2
		c-1.4,0-2.7,0-3.9-0.1c-1.2-0.1-2.3-0.2-3.3-0.5c-0.9-0.2-1.6-0.7-2-1.3C373.2,352.1,373.1,351.2,373.1,350.1L373.1,350.1z"/>
	<path id="path95" inkscape:connector-curvature="0" class="st4" d="M402,357.7c0,0.2,0,0.5-0.2,0.9c-0.2,0.4-0.4,0.9-0.7,1.4
		c-0.3,0.5-0.6,1-0.9,1.4c-0.3,0.4-0.5,0.7-0.7,0.8c0.3-1.3,0.5-2.8,0.4-4.6c-0.1-1.8-0.3-3.6-0.6-5.5c-0.3-1.9-0.7-3.9-1.1-5.8
		c-0.4-1.9-0.9-3.7-1.4-5.4c-0.5-1.6-0.9-3.1-1.3-4.2c-0.4-1.2-0.7-2-0.8-2.4c-0.5,0-0.8,0-0.9,0.2c-0.2,0.2-0.4,0.4-0.5,0.7
		c-0.1,0.3-0.3,0.6-0.5,0.7c0,0,0-0.3,0.1-0.8c0.1-0.5,0.3-1.1,0.5-1.8c0.2-0.7,0.4-1.4,0.6-2.1c0.2-0.7,0.4-1.3,0.5-1.7
		c0.1-0.4,0.2-0.7,0.2-0.7c0.2-0.1,0.9,0.1,2.1,0.6c1.2,0.5,2.8,1.2,4.5,2.1c1.8,0.9,3.7,1.9,5.7,3c2,1.1,3.9,2.2,5.7,3.2
		c1.8,1,3.3,1.9,4.5,2.7c1.2,0.8,1.9,1.3,2.1,1.5c0.1,0.2,0.2,0.6,0.2,1.1c0,0.5,0,1.1,0,1.8c0.2,0.6,0.4,1.2,0.6,1.8
		c0.2,0.6,0.1,1-0.3,1.3c-0.8-0.3-1.4-0.6-1.9-0.9l-10.3-5.8c-0.2,0.9-0.6,1.9-1,3c-0.4,1.1-1.1,1.9-2.1,2.6l-4.4,3.1L402,357.7
		L402,357.7z M396.7,334.8l2.6,11.6l6.2-4.4c0.3-0.2,0.5-0.4,0.8-0.6c0.3-0.2,0.5-0.5,0.7-0.7L396.7,334.8z"/>
	<path id="path97" inkscape:connector-curvature="0" class="st4" d="M411,324.2c-0.1-1.1-0.1-2.4,0.2-3.8c0.2-1.4,0.6-2.8,1.1-4.2
		c0.6-1.4,1.3-2.4,2.2-3.3c0.6-0.5,1.2-0.9,2-1.2c0.7-0.3,1.4-0.6,2-0.7s1.2-0.2,1.7-0.2c0.5,0,0.8,0.1,0.9,0.2
		c0.1,0.1,0.2,0.5,0.2,1.2c0,0.6,0.1,1.3,0,2.1c0,0.7,0,1.4-0.1,2s-0.1,0.9-0.1,0.9c-0.4-0.4-0.8-0.8-1.3-1.1
		c-0.5-0.3-1.1-0.5-1.7-0.5c-0.6,0-1.3,0.1-2.1,0.4c-0.7,0.3-1.6,0.8-2.4,1.5c-1.5,1.3-1.7,2.6-0.6,3.9c0.5,0.6,1.3,1,2.3,1.2
		c1,0.2,2.1,0.2,3.4,0.1c1.2-0.1,2.6-0.2,3.9-0.4c1.4-0.2,2.7-0.4,3.9-0.4c1.2-0.1,2.4-0.1,3.4,0.1c1,0.1,1.8,0.5,2.3,1.1
		c0.4,0.4,0.6,1,0.7,1.7c0.1,0.7,0.1,1.4,0,2.1c-0.1,0.7-0.2,1.4-0.4,2c-0.1,0.6-0.3,1.1-0.3,1.5c-0.1,0.3-0.2,0.8-0.3,1.4
		c-0.1,0.6-0.2,1.3-0.4,2c-0.2,0.7-0.5,1.4-0.9,2.2c-0.4,0.7-0.9,1.4-1.6,2c-0.8,0.7-1.6,1.2-2.5,1.5c-0.9,0.4-1.8,0.6-2.6,0.7
		c-0.8,0.1-1.5,0.1-2.2,0c-0.6-0.1-1.1-0.3-1.4-0.6c-0.1-0.1-0.1-0.4-0.1-1c0-0.6,0.1-1.2,0.1-1.8c0.1-0.7,0.2-1.3,0.3-1.8
		c0.1-0.6,0.2-0.9,0.3-0.9c0.1,0.6,0.2,0.9,0.4,1c0.3,0.4,0.9,0.6,1.5,0.7c0.7,0.1,1.4,0,2.1-0.2c0.8-0.2,1.5-0.4,2.2-0.8
		c0.7-0.4,1.4-0.8,1.9-1.2c2.4-2,2.9-3.8,1.5-5.4c-0.6-0.6-1.3-1.1-2.4-1.2c-1-0.2-2.2-0.2-3.4-0.2c-1.3,0.1-2.6,0.2-3.9,0.4
		c-1.4,0.2-2.7,0.4-3.9,0.5c-1.2,0.1-2.3,0.1-3.3,0c-1-0.1-1.7-0.4-2.1-1C411.4,326.2,411.1,325.4,411,324.2L411,324.2z"/>
</g>
<g id="g105" transform="translate(-53.079249,-25.0625)">
	<path id="path107" inkscape:connector-curvature="0" class="st5" d="M187.3,266.4c0,0-0.8,3.2-2.3,3.2c0.6-3-3-10.3-3-10.3
		s0.1,4.7-1.2,6.9c0.4-1.9-1.4-5.8-2.3-7.6c-0.1-0.3-0.2-0.7-0.3-1.2c-0.8,0.7-1.7,1.4-2.9,1.8c-3.9,1.3-6.6,1.6-7.1,1.6
		c0.3,0,2.5,0,4.2,0c-0.8,0-6.9,2.6-11.5,2.6c-4.6,0-4.6-3.4-7.5-3.9c0-1.3-3.2-5.7-5.6-5.7c-2.4,0-3.5,4.5-1.9,6
		c1.7,0,4.9,2.2,4.9,3.5c-1.6-1.6-7.7-3.1-7.7-0.6c0,4.5,3,4.4,7.5,5.6c-3.4,0-5.5,3.3-4.4,6.6c1.3,5.2,6.9,2.9,6.9,2.9
		c0.6,7.9,7.6,4.5,9.1,3c0,0.7,1.6,2,2,1.6c0.4-0.4,3.4-2.5,5.5-2.5c2.1,0,3.8-0.8,4.9-2.7c0,0,1.3,2.6,4.8,1.9
		c3.6-0.7,11.5,3.2,11.5,3.2l0,0c-0.1-2.3-0.8-5.3-2-7.3C187.2,271.9,187.3,266.4,187.3,266.4L187.3,266.4z"/>
	<path id="path109" inkscape:connector-curvature="0" class="st5" d="M264.8,283.9l-1.5-2.8c-1.2,0.5-3.4,1.1-7.1,1.1
		c-6.7,0-15.8,0.2-19,0.2c-3.2,0-4.6,0-4.6,0l0.6,1.2c0,0-9.2,1.3-9.8,2c-2.1,1.1-3.2,1.9-3.2,3.5c-0.9,1.9,1.4,4,3.1,3.5
		c1.9-1,1.9-2.5,1.9-2.5s6.9-2.3,9.8-1.5c-1.9,0.7-7.5,2-8,2.5c-1.2,1.2-3.7,3.2-3.7,3.2c-0.7,0.7,0.4,6.4,4.6,4.5
		c4.2-2,4.6-3,4.6-3s8.8-1.4,10.1-2.8c0.2,0.9,0.2,0.9,0.2,0.9s13.1,0.1,16.2-3c0.9,0.9,0.5,1.5,0.5,1.5s6,1.9,11-1.3
		c-1.7-2.5-3.2-5.1-4.1-7.1C264.8,283.9,264.8,283.9,264.8,283.9z"/>
</g>
<path id="path111" inkscape:connector-curvature="0" class="st5" d="M164.1,269.1c0,0,2.3-2.5,7.2-3.4c0-1.6-1.1-2.9-2.2-2.9
	C167.3,263.2,162.1,267.1,164.1,269.1z"/>
<path id="path113" inkscape:connector-curvature="0" class="st5" d="M166.9,276c0,0,2.3-2.5,7.2-3.4c0-1.6-1.1-2.9-2.2-2.9
	C170.2,270.1,164.9,274,166.9,276z"/>
<path id="path115" inkscape:connector-curvature="0" class="st5" d="M83.4,245.7c0,0,4.3-3.5,12.2-3.8c0.4-2.5-1.1-4.9-2.7-5.2
	C90,237,80.6,241.9,83.4,245.7z"/>
<path id="path117" inkscape:connector-curvature="0" class="st5" d="M91.5,258.4c0,0,1.9-5.2,8.6-9.5c-1-2.4-3.4-3.7-5-3.1
	C92.7,247.5,87.2,256.5,91.5,258.4z"/>
<path id="path119" inkscape:connector-curvature="0" class="st5" d="M99.9,265c0,0,1.9-5.2,8.6-9.5c-1-2.4-3.4-3.7-5-3.1
	C101.1,254.2,95.6,263.2,99.9,265z"/>
<path id="path121" inkscape:connector-curvature="0" class="st5" d="M83.5,235.4c0,0,5.1-2.2,12.8-0.4c1-2.3,0.3-5-1.3-5.7
	C92.1,228.7,81.8,231.1,83.5,235.4z"/>
<g id="g123" transform="translate(-53.079249,-25.0625)">
	<path id="path125" inkscape:connector-curvature="0" class="st5" d="M142.8,209.8c-0.7-1.6-0.2-5.1,0.2-7.2
		c-1.1-0.6-2.1-1.3-2.9-2.1C139,204.6,140,208.8,142.8,209.8L142.8,209.8z"/>
	<path id="path127" inkscape:connector-curvature="0" class="st5" d="M133.5,197.2c0,2.6,0.3,8.3,3.2,10.4c-0.4-2.2,0-6.2,1.2-8.9
		c-0.1-0.1-0.2-0.1-0.2-0.2C136.4,198.4,134.8,197.9,133.5,197.2z"/>
	<path id="path129" inkscape:connector-curvature="0" class="st5" d="M145.4,217.5c-1-2.2-2-4.9-2-6.2c-1,1.4-1.3,4.4-1.4,6.3
		C143.1,216.7,144.1,217.2,145.4,217.5z"/>
	<path id="path131" inkscape:connector-curvature="0" class="st5" d="M147.7,212.2c-0.2,1.8-0.1,3.7,0.2,5.3
		c0.8-0.1,1.7-0.6,2.6-1.2C149.2,214.7,148.1,213.1,147.7,212.2L147.7,212.2z"/>
	<path id="path133" inkscape:connector-curvature="0" class="st5" d="M324.2,294.4c0,0,0.4,0,0.4,1.4c4-4,10.5-19.1,10.5-19.1
		s0.1,2.9,0.9,2.1c-2.2,6.4-5.8,13.9-13.6,21.6c-11.6,10.2-30.2,18-30.2,18s0,0,1.9,0.6c-2.7,1.1-9,5.1-16.5,9.9
		c-7.5,4.8-16.5,17.8-16.5,17.8s0,0,1.3,0c-2.9,3.8-9.1,14.5-10.1,24.1c7.2,2.2,16.3,2,32.8-2.2c16.5-4.3,25.5-14.5,25.5-14.5
		s0.5,0.9-0.9,2.2c2.5-1.4,16.6-18.8,19.9-26.1c3.3-7.3,10.3-20.5,10.3-20.5s0,0,0,2.1c3.4-4.8,8.5-24,8.5-24s0,0,1,1
		c0-6.9,4.7-21,4.7-21s0.6,1.7,1.1,1.7c0-8.7,2.3-18.4,2.3-18.4s0.8,0.8,1.3,1.3c-2.1-4.3-1.7-22.3-1.7-22.3s0,1.3,0.9,3.1
		c0-10.3-5.7-18.3-5.7-18.3s0.4,0.4,0.8-0.1c-2.7-2.7-4.9-11.2-4.9-11.2l-0.8,0.8c-2.7-8.1-14.5-16.1-14.5-16.1l-0.1,1.4
		c-7.9-9.5-26.5-14.2-26.5-14.2s0,0,0,1c-14.1-6.2-28.3-2-28.3-2s0,0,1,1c-3.5,0-13.6,5.1-20,8.6c-6.4,3.5-14.4,5.6-14.4,5.6
		s0,0,0.7,0.7c-7.4,4.9-16.6,9.4-22.7,7.5c-6.1-1.9-15-14.2-15-14.2s0,0.6,0.2,1.1c-0.7-0.9-3.4-3.3-3.4-3.3
		c-12.3-13.4-19-10.1-23-11.9c0.7,0,3.3-0.6,3.3-0.6s-2.5,0-15.2-0.8c-18.6-1-24.8,9.9-24.8,9.9s-4.1-0.4-5.2,1.7
		c-4.8-0.5-8.6-0.4-8.6,3.4s-1,6.7,3,6.7c0,0-2.5,2.5-2.5,4.6c0,1,1,2,2.2,2.7c1.3,0.7,3,1.2,4.2,1.2c0.1,0.1,0.1,0.1,0.2,0.2
		c0.6,0.6,1.4,1.3,2.2,2c0.9,0.7,1.9,1.4,2.9,2.1c2,1.2,4.2,2.1,6.5,2.1c3.4,1.1,4.4,4.2,4.4,6.6c0,1.5-1.6,3.6-3.4,5
		c-0.9,0.7-1.8,1.1-2.6,1.2c-0.1,0-0.3,0-0.4,0c-0.8,0.2-1.5,0.1-2.1-0.1c-1.2-0.3-2.2-0.8-3.3,0.1c-0.3,0.3-0.7,0.6-1,1.2
		c0,0,3.1,8.1,9.8,9.8c4.2,1.1,6.2-0.1,6.8-0.7c0.6,1.8,3.9,3.3,4.7,4c0-1.3,0-2.1,0-2.1s2.7,1.6,2.7,5.5c1.6-1.6,1.3-4.8,1.3-4.8
		s3.9,8.2,2.7,11.9c2.6-2.6,2.1-5.5,2.1-5.5s2.3,7.5,0.6,11.2c1.7-0.6,2.8-4.8,2.8-4.8s2,7.7,1.3,10.9c2-2,2-5.5,2-5.5
		s-0.1,5.9,0.4,8.7c0.1,0.5,0.2,0.9,0.3,1.2c0.9,1.8,2.8,5.7,2.3,7.6c1.3-2.2,1.2-6.9,1.2-6.9s3.6,7.3,3,10.3c1.5,0,2.3-3.2,2.3-3.2
		s-0.2,5.5,1.8,8.8c1.2,2,1.9,5,2,7.3c0.1,1.4,0,2.6-0.3,3.1c1,0,1-2.4,1-2.4s0.2,2.7,0.9,6.7c0.7,4,0.1,9.8-3.5,10.2v-0.4
		c0,0-2.8,0.8-5.6-2c-2.8-2.8-8.6-1.4-9.7,5.3c-1.3,2.7,0.9,3.7,0.9,3.7s-0.4,5,4,5c1.3,5.1,3.3,6.2,6.1,4.7c2.7,2.7,5.4,5.7,10.1,3
		c3.2-3.2,4.8-4.8,4.8-4.8s11.2-5.7,13.3-13.1c2.1-7.3,4.5-19.4,4.5-24.9c0.4-0.4,0.4,0.4,0.4,0.4s1-9.9,1-14.8
		c0-4.8,0.1-9.8,0.1-9.8s0.1,7.7,1.6,10.9l0.3-2.3c0,0,2,8.4,3.2,8.4c-3.2,0-4.6,1.4-4.6,1.4s-1.2,5.4-1.2,8c0,0,0,4.8,0.7,5.9
		c1.5-0.7,2.8,0,4.4-1.7c1.6-1.6,0.5-2.8,0.5-2.8c2.1,2.1,2.4,2.9,4.3,2.9s2.7-0.8,2.7-0.8s-2-6.7-2-7.2c2,3.9,3.6,6.5,6,6.5
		c2.6,0,3.1-0.5,3.1-0.5s-0.5-4-1.6-5.1c2.8,2.8,4.6,5.3,6.6,5.3c1.9,0-1.4-7.1-1.4-7.8c3.4,6.1,3.2,7.9,6.1,7.9s5.2-0.7,5.2-0.7
		s-3.5-5.2-4.4-6.1c4.1,2,4.7,6.6,7,6.6c2.2,0,3-2.1,1.5-3.6c-1.4-1.5-2.4-3.5-1.9-4c2.5,2.5,4.4,5.3,4.4,6.7c0.7-1.8-0.5-4.2-0.5-6
		c1.2,0.5,1.6,2.3,1.6,2.3l2.5,4.9l1.5,2.8c0,0,0,0,1.8,0c0.9,2,2.4,4.6,4.1,7.1c1.9,2.9,4.2,5.7,6,7.6c-4,6-14.7,6.3-22.7,6.3
		c-1.2-1.2-14.4-1.8-18.5-0.7c-4.1,1,0,6.6,0,6.6s0,4.3,3.1,4.3c-0.7,3.8,4.7,6.2,4.7,6.2s0,1.9,3.8,4.1c8.9,4.3,18.3-3.7,18.3-3.7
		s8.8-1.9,15.3-4.3c6.5-2.3,18.9-3.4,21.9-5c2.9-1.6-0.7-7.6-0.7-7.6s0,0,1.2,0c0-4.1-2.9-5.1-6.7-8.9c2.6,0,7.3,5,7.9,8.6
		c0.6,3.6,3.2,3.2,3.2,3.2c0.2-0.2,3.8-0.9,4.6-3.2c0.5,0.5,0.5,1.4,0.5,1.4s1.9-3.6,1.9-4.9c0.4,1.4,0.4,2.6,0.4,2.6
		s2.6-2.7,3.5-3.6c1-1.7,1.1-2.9,1.1-2.9s0.5,2.2,0.5,2.5C321.8,297.5,324.2,296.6,324.2,294.4L324.2,294.4z"/>
</g>
<path id="path135" inkscape:connector-curvature="0" d="M112.9,153.5c0,0-0.6,4.3,2.3,4.6c1.7,0.2,3.3-1.4,3.3-1.4
	S115.2,153.4,112.9,153.5z"/>
<path id="path137" inkscape:connector-curvature="0" d="M125.1,155.6c0,0,3.5,4.2,4.5,4.2c-1.4,0.7-3.2,1.4-4.5,3.4
	c0.2-1.8,2-3.6,2.5-3.6C126.9,158.4,126,158,125.1,155.6L125.1,155.6z"/>
<path id="path139" inkscape:connector-curvature="0" class="st5" d="M100.6,184c0,0-2.9,0-5.8,0.8c-2.9,0.7-14.1-0.3-16.9-2.1
	c1.8,4,8.1,5.3,14.5,5c6.4-0.3,8.2-0.1,8.2-0.1S101.2,186.4,100.6,184z"/>
<path id="path141" inkscape:connector-curvature="0" d="M115.6,255.1c0,0,1.1-2.1,1.5-3.6c0.4,1.7,1.1,3.3,1.1,3.3
	S116.5,255.1,115.6,255.1L115.6,255.1z"/>
<path id="path143" inkscape:connector-curvature="0" d="M130.5,237.8c0,0-2.6,8.4-5.1,9.4c3,0.2,5.3,0.4,6.4-0.7
	c0.4,2.7,0.2,5.2,1.5,6.1c-0.7,0.2-2.1-1.6-2.1-1.6s1.4,3.6,3.7,5.1c1.6,0.7,3.1,1.3,3.1,1.3s-0.2-4.2-1.7-6.7
	c-1.5-2.5-2.1-6.2-2.1-8.3c0-1.1,0-1.1,0-1.1s-0.7,3.2-2.3,3.2C131.8,242.2,131.4,240,130.5,237.8L130.5,237.8z"/>
<path id="path145" inkscape:connector-curvature="0" d="M98.6,253.2c0,0,3.6-5.7,6.8-6.7c-2.3,2.3-5.1,7.6-5.1,7.6l-0.2-1.3
	L98.6,253.2z"/>
<path id="path147" inkscape:connector-curvature="0" d="M93.6,242.3c0,0,5.6,0,8.1,0.9c-3.1,0.2-7.5,1.6-7.5,1.6s1.6-1.4,3.4-1.4
	C95.9,242.7,93.6,242.3,93.6,242.3z"/>
<path id="path149" inkscape:connector-curvature="0" d="M124.9,232.5c0,0-0.6,1.9,0,4.4c0.6,2.5,0.5,5.6-0.5,7
	c1.6-0.7,2.1-4.4,1.6-6.4c0.9,0.9,0.9,3.4,0.9,3.4l0.5-3.2l-1.7-3.9l-0.5-1.6L124.9,232.5z"/>
<path id="path151" inkscape:connector-curvature="0" d="M247.9,168.5c-0.1-0.2,4.5,0.5,7.2,4.9C251,170.8,248.1,168.4,247.9,168.5z"
	/>
<path id="path153" inkscape:connector-curvature="0" d="M240.4,170.8c-0.7-0.4,6.8-2.1,9.6,4.7C245.8,170.6,240.5,170.6,240.4,170.8
	z"/>
<path id="path155" inkscape:connector-curvature="0" d="M234.9,172.5c-0.3-0.1,4.8-0.9,7.5,3.5C238.5,173.6,235,172.6,234.9,172.5z"
	/>
<path id="path157" inkscape:connector-curvature="0" d="M227,176.7c-0.3-0.1,5-2.4,9.6,1.4C231.4,176.6,227.1,176.7,227,176.7z"/>
<path id="path159" inkscape:connector-curvature="0" d="M219.4,180.3c-0.2,0.1,4.6-2.5,9.6,0.4C223.8,180.1,219.5,180.4,219.4,180.3
	z"/>
<path id="path161" inkscape:connector-curvature="0" d="M213.4,184.7c-0.2,0.1,4.9-2.5,10.4,0.4
	C218.1,184.5,213.4,184.7,213.4,184.7z"/>
<path id="path163" inkscape:connector-curvature="0" d="M210.1,189.8c-0.4-0.1,4.8-3,9.4,0.8C214.4,189.1,210.2,189.7,210.1,189.8z"
	/>
<path id="path165" inkscape:connector-curvature="0" d="M206.2,193.6c-0.2,0.2,4.8-3,10.2,0C210.8,192.9,206.2,193.8,206.2,193.6z"
	/>
<path id="path167" inkscape:connector-curvature="0" d="M204.3,199.4c-0.5,0,2.7-3.8,7.1-2C207.3,198,204.4,199.2,204.3,199.4z"/>
<path id="path169" inkscape:connector-curvature="0" d="M202,206.1c-0.3,0.4,3-6.3,10.4-5.4C205.9,202,202.2,206.2,202,206.1z"/>
<path id="path171" inkscape:connector-curvature="0" d="M200.8,213.8c-0.3,0.2,2.2-4.7,7.6-4C203.8,211.2,200.9,213.7,200.8,213.8z"
	/>
<path id="path173" inkscape:connector-curvature="0" d="M172.5,180c0,0.2,4,2,9.6,2.6C176.3,184.3,172.1,180,172.5,180z"/>
<path id="path175" inkscape:connector-curvature="0" d="M174.4,186.2c0.1-0.1,4.7,0.1,10.3-0.8C179.4,188.6,174.2,186.1,174.4,186.2
	L174.4,186.2z"/>
<path id="path177" inkscape:connector-curvature="0" d="M175.7,189.4c0.1-0.2,5,1,11-0.4C180.9,192.7,175.4,189.3,175.7,189.4z"/>
<path id="path179" inkscape:connector-curvature="0" d="M176.4,192.8c0.1,0.1,4.3,0.7,9.6-0.4C181.1,195.7,176,192.8,176.4,192.8z"
	/>
<path id="path181" inkscape:connector-curvature="0" d="M177.4,196.7c0.1,0.1,4.2,1.1,9.1-0.7C182,200.1,176.8,196.7,177.4,196.7z"
	/>
<path id="path183" inkscape:connector-curvature="0" d="M178.4,201.2c0.1,0,4.1,2.1,9.6,1.4C182.5,205.7,177.9,201.1,178.4,201.2z"
	/>
<path id="path185" inkscape:connector-curvature="0" d="M177.7,205c0,0.2,4.5,2.2,10.5,1.2C182.2,209.6,177,205.1,177.7,205z"/>
<path id="path187" inkscape:connector-curvature="0" d="M176.5,208.8c0,0,5.3,2.7,12.2,1.9C181.7,213.8,176.1,208.6,176.5,208.8z"/>
<path id="path189" inkscape:connector-curvature="0" d="M175.4,211.6c0,0,5,3.6,12.2,2.9C180.2,217.5,174.9,211.3,175.4,211.6z"/>
<path id="path191" inkscape:connector-curvature="0" d="M171.7,214.3c0-0.1,5,4.4,12.7,3.5C176.4,221,171.1,214,171.7,214.3z"/>
<path id="path193" inkscape:connector-curvature="0" d="M168.8,216.6c0-0.2,4.1,5.8,12,5.3C172.2,224.6,168.2,216,168.8,216.6z"/>
<path id="path195" inkscape:connector-curvature="0" d="M167.7,218.9c0.1-0.1,1.9,4.6,7.5,6.1C168.4,225.6,167.4,218.3,167.7,218.9z
	"/>
<path id="path197" inkscape:connector-curvature="0" d="M176.3,231.6c0,0,2.4,6.5,9.6,10.2C177.3,239.9,176,231.2,176.3,231.6z"/>
<path id="path199" inkscape:connector-curvature="0" d="M181.6,233.5c0.1-0.2,3.4,4.8,9.9,6.1C184,240.4,181.3,233,181.6,233.5z"/>
<path id="path201" inkscape:connector-curvature="0" d="M185.8,232.7c0.1-0.1,4,2.5,9.4,3.8C189,237.4,185.6,232.5,185.8,232.7z"/>
<path id="path203" inkscape:connector-curvature="0" d="M188.7,230.3c0.1-0.1,4.2,0.8,9.1,2.3C192.4,233.4,188.6,230.2,188.7,230.3
	L188.7,230.3z"/>
<path id="path205" inkscape:connector-curvature="0" d="M171.2,228.8c0.2-0.3,1.2,8.6,9.8,13C170.7,239.1,171,228,171.2,228.8z"/>
<path id="path207" inkscape:connector-curvature="0" d="M166.5,223.6c0.3-0.3-0.2,10.9,9.2,18.7
	C164.3,235.8,166.6,222.8,166.5,223.6z"/>
<path id="path209" inkscape:connector-curvature="0" d="M261.1,192.1c-0.6,0.6,3.8-5.8,9.1-1.3C264.8,188.6,261.2,192.5,261.1,192.1
	z"/>
<path id="path211" inkscape:connector-curvature="0" d="M262.8,195.6c-0.6,0.1,4.9-4.5,9.9,0.1C267.3,193.4,262.9,195.6,262.8,195.6
	z"/>
<path id="path213" inkscape:connector-curvature="0" d="M263.1,200.3c-0.6,0.1,5.4-4.4,10.8,0.4
	C268.1,198.2,263.1,200.4,263.1,200.3z"/>
<path id="path215" inkscape:connector-curvature="0" d="M265.5,204.8c-0.9-0.1,6.6-3.3,9.4,3.6C270.8,203.5,265.4,204.8,265.5,204.8
	z"/>
<path id="path217" inkscape:connector-curvature="0" d="M263.5,208.7c-0.8-0.6,7.7-2.4,11,5.3C269.7,208.2,263.5,208.3,263.5,208.7z
	"/>
<path id="path219" inkscape:connector-curvature="0" d="M264.4,214.7c-0.9-0.4,9.3,0.8,8.6,10.2
	C271.7,216.8,264.1,214.8,264.4,214.7z"/>
<path id="path221" inkscape:connector-curvature="0" d="M262.4,219.4c-0.6-0.7,8.3,2,7,10.6C268.5,222.3,262.3,219.3,262.4,219.4z"
	/>
<path id="path223" inkscape:connector-curvature="0" d="M258.8,223.5c0,0,1.9-0.2,4.4,1.5c2.5,1.6,4.4,5.8,3.8,10
	C266.3,225.9,258.7,223.2,258.8,223.5L258.8,223.5z"/>
<path id="path225" inkscape:connector-curvature="0" d="M256.4,227.6c-0.6-0.9,9.2,2,7.1,11.4C263.3,230.4,256.3,227.4,256.4,227.6z
	"/>
<path id="path227" inkscape:connector-curvature="0" d="M254.2,231.7c-0.1-0.8,6.3,4.4,2.9,11.7
	C258.1,236.2,254.3,231.6,254.2,231.7z"/>
<path id="path229" inkscape:connector-curvature="0" d="M250.9,234.4c-0.2-0.4,4.3,4.8,1.3,11C252.9,239.2,250.8,234.5,250.9,234.4z
	"/>
<path id="path231" inkscape:connector-curvature="0" d="M247.8,236.6c-0.2-0.1,2.6,4.7,0,10.1C248.1,241.3,247.6,236.7,247.8,236.6z
	"/>
<path id="path233" inkscape:connector-curvature="0" d="M244.4,238.7c-0.1-0.1,2,3.6-0.5,7.5C244.1,242.2,244.3,238.8,244.4,238.7z"
	/>
<path id="path235" inkscape:connector-curvature="0" d="M240.1,236.3c-0.3-0.3,3.1,3.3,0,6.8C240.8,239.5,239.8,236.3,240.1,236.3z"
	/>
<path id="path237" inkscape:connector-curvature="0" d="M236.6,235.8c-0.1-0.1,2.2,2.8,0.6,6.3C236.5,238.7,236.6,235.9,236.6,235.8
	z"/>
<path id="path239" inkscape:connector-curvature="0" d="M232.5,238c-0.1-0.2,2.5,2.8,0.4,6.3C232.7,240.8,232.4,238.1,232.5,238z"/>
<path id="path241" inkscape:connector-curvature="0" d="M234.6,245c-0.2-0.2,2.2,1.9,0,3.9C234.5,246.9,234.5,245.1,234.6,245z"/>
<path id="path243" inkscape:connector-curvature="0" d="M237.8,245.2c-0.2-0.2,3.1,3.5,0.7,8C238.6,248.8,237.7,245.3,237.8,245.2z"
	/>
<path id="path245" inkscape:connector-curvature="0" d="M240.4,251.5c-0.1-0.3,2.4,2.4,0,5C240.4,253.7,240.3,251.7,240.4,251.5z"/>
<path id="path247" inkscape:connector-curvature="0" d="M243.5,251.1c-0.1,0,2.2,5.2,1.3,11.8C243.3,256.5,243.4,251.2,243.5,251.1z
	"/>
<path id="path249" inkscape:connector-curvature="0" d="M247.7,257c-0.1-0.2,1.8,4.5-1.2,8.9C247.2,261.1,247.6,257.1,247.7,257z"/>
<path id="path251" inkscape:connector-curvature="0" d="M249.8,261.8c-0.1-0.1,0.6,4.1-2.3,7.8C248.2,265.2,249.7,261.9,249.8,261.8
	z"/>
<path id="path253" inkscape:connector-curvature="0" d="M252.9,265c-0.1-0.2,1.9,4.6-1.5,8.9C252.5,269.2,252.7,265.1,252.9,265z"/>
<path id="path255" inkscape:connector-curvature="0" d="M259.4,262c-0.3-0.2,1.6,5.8-2.6,10.9C258.7,267.2,259.1,262,259.4,262
	L259.4,262z"/>
<path id="path257" inkscape:connector-curvature="0" d="M262.8,260.5c-0.2-0.2,1.6,6.1-2.2,12.2
	C262.2,266.2,262.7,260.5,262.8,260.5z"/>
<path id="path259" inkscape:connector-curvature="0" d="M267,256.4c-0.2-0.1,2,5.4-0.8,11.5C266.6,261.6,266.8,256.4,267,256.4z"/>
<path id="path261" inkscape:connector-curvature="0" d="M269.9,250.2c-0.2-0.2,3.3,5.4,0.8,12C270.8,255.6,269.8,250.3,269.9,250.2
	L269.9,250.2z"/>
<path id="path263" inkscape:connector-curvature="0" d="M274.3,246.2c-0.1-0.1,2.3,5.2,0,11.3C274.3,251.4,274.2,246.3,274.3,246.2
	L274.3,246.2z"/>
<path id="path265" inkscape:connector-curvature="0" d="M273.2,171.8c-0.6-0.1,4.5-2.8,7.2,1.7C276.7,171.1,273.3,171.8,273.2,171.8
	z"/>
<path id="path267" inkscape:connector-curvature="0" d="M276.6,175.7c-0.2,0,4.7-0.8,7.8,3.4C280.2,177,276.6,175.9,276.6,175.7z"/>
<path id="path269" inkscape:connector-curvature="0" d="M278.8,179.8c-0.5,0.2,7-1.3,10.4,5.4C284.6,180.5,278.7,180.1,278.8,179.8z
	"/>
<path id="path271" inkscape:connector-curvature="0" d="M280.5,185c-0.4-0.5,6.7-0.3,8.6,6.4C285.4,186.4,280.7,184.8,280.5,185z"/>
<path id="path273" inkscape:connector-curvature="0" d="M282.3,191.4c-0.5-0.5,7.4,0.7,7.7,8.4C287.7,193.4,282.3,191.3,282.3,191.4
	z"/>
<path id="path275" inkscape:connector-curvature="0" d="M283.8,198.5c-0.3-0.2,5.5,1.8,5.8,8C287.3,201.5,283.8,198.6,283.8,198.5z"
	/>
<path id="path277" inkscape:connector-curvature="0" d="M283.5,204.7c-0.3-0.2,5.8,4,5.2,11.7C287.1,209.5,283.4,204.8,283.5,204.7z
	"/>
<path id="path279" inkscape:connector-curvature="0" d="M283.4,212.2c-0.2-0.2,4.7,2.4,4.4,8.1C286,215.6,283.4,212.3,283.4,212.2z"
	/>
<path id="path281" inkscape:connector-curvature="0" d="M283.7,219c-0.2-0.1,4.3,1.7,4.6,6.7C286,221.9,283.6,219.1,283.7,219z"/>
<path id="path283" inkscape:connector-curvature="0" d="M280.7,220.9c-0.5,0.2,6.4,3,8.1,10.8C285.2,225.2,280.3,221.2,280.7,220.9z
	"/>
<path id="path285" inkscape:connector-curvature="0" d="M280,226.8c-0.3-0.4,7.3,1.1,9.2,8.8C285.5,229.4,280.1,226.7,280,226.8z"/>
<path id="path287" inkscape:connector-curvature="0" d="M280.5,232.1c-0.4-0.3,5.6,2.4,4.7,8.7C284,235.4,280.4,232.2,280.5,232.1z"
	/>
<path id="path289" inkscape:connector-curvature="0" d="M278.1,234.9c-0.1-0.4,5.4,2.9,5,9.6C281.3,238.6,278.2,234.9,278.1,234.9z"
	/>
<path id="path291" inkscape:connector-curvature="0" d="M277.4,238.9c0-0.6,4.5,3.5,1.9,8.8C279.5,242.5,277.6,238.9,277.4,238.9z"
	/>
<path id="path293" inkscape:connector-curvature="0" d="M276.5,244.2c-0.2-0.2,3.9,3.6,2,9.1C278,248.2,276.3,244.3,276.5,244.2z"/>
<path id="path295" inkscape:connector-curvature="0" d="M268.1,170c-0.2,0.1,4.3-2.9,9.5-0.4C272.4,169.5,268.2,170,268.1,170z"/>
<path id="path297" inkscape:connector-curvature="0" d="M257.3,165.1c-0.2,0.1,5.6-3.2,12.4-0.6
	C262.9,164.2,257.4,165.2,257.3,165.1z"/>
<path id="path299" inkscape:connector-curvature="0" d="M255.6,168.7c-0.3-0.6,6.6,0.5,7.8,7.3C260.3,170.6,255.8,168.4,255.6,168.7
	L255.6,168.7z"/>
<path id="path301" inkscape:connector-curvature="0" d="M263.5,169.7c-0.3-0.5,5.1,0.6,5,5.8C266.5,171.5,263.7,169.6,263.5,169.7z"
	/>
<path id="path303" inkscape:connector-curvature="0" d="M250.7,162.5c-0.4,0.2,4.6-4.1,10.1-0.7
	C255.2,160.8,250.8,162.6,250.7,162.5L250.7,162.5z"/>
<path id="path305" inkscape:connector-curvature="0" d="M244.2,161.4c-0.5,0,4.7-5.1,11.6-2.3C249,158.6,244.2,161.2,244.2,161.4z"
	/>
<path id="path307" inkscape:connector-curvature="0" d="M238.3,159.9c-0.6,0.3,3.8-5.5,10-2.4C242.3,156.7,238.3,159.9,238.3,159.9z
	"/>
<path id="path309" inkscape:connector-curvature="0" d="M231.4,160.6c-0.4,0.4,2.9-6.6,10.2-5C235.1,156.2,231.5,160.7,231.4,160.6z
	"/>
<path id="path311" inkscape:connector-curvature="0" d="M225,160.8c-0.3,0.4,1.6-5.6,7.5-4.6C227.5,157.3,225.1,160.8,225,160.8z"/>
<path id="path313" inkscape:connector-curvature="0" d="M217.3,163.5c-0.1,0.5,1.4-6.2,8-6.2C220,159.2,217.6,163.8,217.3,163.5z"/>
<path id="path315" inkscape:connector-curvature="0" d="M184.6,176.1c-0.2,0.4-0.3-3.1,2.7-2.5C185.7,174.9,184.8,176,184.6,176.1z"
	/>
<path id="path317" inkscape:connector-curvature="0" d="M189.3,175c-0.1,0.4,0.5-4.1,4.7-3.8C191.2,172.8,189.5,175.1,189.3,175z"/>
<path id="path319" inkscape:connector-curvature="0" d="M195.1,173.5c0,0.3,0-4.8,4.9-6.2C196.8,170.2,195.2,173.5,195.1,173.5
	L195.1,173.5z"/>
<path id="path321" inkscape:connector-curvature="0" d="M202.8,170.1c0,0.3-1.3-3.7,2.2-6C203.6,167.3,202.9,170,202.8,170.1z"/>
<path id="path323" inkscape:connector-curvature="0" d="M206.2,168.4c0.1,0.3,0.5-4.7,5.5-6.7C208.4,165.2,206.4,168.5,206.2,168.4z
	"/>
<path id="path325" inkscape:connector-curvature="0" d="M211.9,164.6c-0.2,0.3,1.6-6.4,8.6-7.7C214.9,160.1,212,164.6,211.9,164.6z"
	/>
<path id="path327" inkscape:connector-curvature="0" d="M192.4,227.4c0.1-0.1,3.5,0.7,7.9,0.7C195.9,230.5,192.2,227.3,192.4,227.4z
	"/>
<path id="path329" inkscape:connector-curvature="0" d="M194.2,223.1c0.1,0.1,2.8,0.6,6.4,1.2C196.8,226.1,193.9,223.1,194.2,223.1z
	"/>
<path id="path331" inkscape:connector-curvature="0" d="M195.1,219.6c0.1,0,3.1,0.7,7.1,0.6C198.3,222.7,194.7,219.6,195.1,219.6z"
	/>
<path id="path333" inkscape:connector-curvature="0" d="M197.2,215.8c0.1-0.1,3-0.1,6.7,0C200.3,218,197,215.7,197.2,215.8z"/>
<path id="path335" inkscape:connector-curvature="0" d="M214.1,260.1c0.2-0.1,0.6-2.7,1.6-6.1C217,257.8,214.2,260.5,214.1,260.1z"
	/>
<path id="path337" inkscape:connector-curvature="0" d="M211.7,256.3c0,0-1.2-2.4,0-5.4C212.9,253.9,211.7,256.3,211.7,256.3z"/>
<path id="path339" inkscape:connector-curvature="0" d="M204.5,244c0-0.1,1.4-3.3,3.9-6.9C208,241.8,204.4,244.1,204.5,244z"/>
<path id="path341" inkscape:connector-curvature="0" d="M202.9,240.2c0.1-0.1,1.7-2.6,4.3-5.4C206.5,239,202.8,240.4,202.9,240.2z"
	/>
<path id="path343" inkscape:connector-curvature="0" d="M200.8,234.8c0-0.1,1.8-2.4,4.6-4.8C204.3,233.9,200.6,234.8,200.8,234.8z"
	/>
<path id="path345" inkscape:connector-curvature="0" d="M200.9,226.8c0-0.1,2.2-2.9,5.1-6.2C204.9,225.3,200.7,226.9,200.9,226.8z"
	/>
<path id="path347" inkscape:connector-curvature="0" d="M199.9,219c0.2,0,2.7-1,5.5-3.3C204,219.8,199.5,219.2,199.9,219z"/>
<path id="path349" inkscape:connector-curvature="0" d="M202.3,235.9c-0.1,0.1,0.4-2.1,2.8-2.8C204.4,235.5,202.1,236,202.3,235.9z"
	/>
<path id="path351" inkscape:connector-curvature="0" d="M200.6,231.3c0.3,0.3,2.6-1.6,5.4-4.7C205.1,231.2,200.4,231.9,200.6,231.3z
	"/>
<path id="path353" inkscape:connector-curvature="0" d="M206.8,248.3c-0.8-1.1-1.5-2.3-2.1-3.5c-1.2-2.4-1.9-4.9-2.5-7.2
	c-1.2-4.8-1.6-9.2-1.8-12.9c-0.4-7.4,0.2-12.1,0.1-12.1c0,0,0.1,4.6,0.7,12c0.4,3.7,0.9,8,1.9,12.7c0.5,2.3,1.2,4.8,2.2,7.2
	c0.5,1.2,1.1,2.4,1.8,3.5L206.8,248.3z"/>
<path id="path355" inkscape:connector-curvature="0" d="M220.6,285.6c0.1,0,1,1.2,1.1,2.9C219.4,287.6,220.7,285.4,220.6,285.6z"/>
<path id="path357" inkscape:connector-curvature="0" d="M224.4,285.2c0.1,0.2,0.9,1.1,1.1,2.8C223.2,287.3,224.3,284.9,224.4,285.2z
	"/>
<path id="path359" inkscape:connector-curvature="0" d="M228.9,283.9c0.2,0.1,0.8,1.4,1.9,3C227.9,286.8,228.8,283.5,228.9,283.9z"
	/>
<path id="path361" inkscape:connector-curvature="0" d="M234.1,282.7c0,0.2,1,0.8,1.1,2.5C233,284.7,233.9,282.4,234.1,282.7z"/>
<path id="path363" inkscape:connector-curvature="0" d="M194.6,282.4c0,0.2,0.8,0.7,0.8,2.2C193.4,284.2,194.5,282.1,194.6,282.4z"
	/>
<path id="path365" inkscape:connector-curvature="0" d="M191.5,288.2c0,0,3.1-1.2,6.8,0C194.6,289.4,191.5,288.2,191.5,288.2z"/>
<path id="path367" inkscape:connector-curvature="0" d="M183.6,284.9c0,0,3.1-1.2,6.8,0C186.7,286,183.6,284.9,183.6,284.9z"/>
<path id="path369" inkscape:connector-curvature="0" d="M186.6,291.8c0,0,2.5-2.2,6.4-2.4C190,291.8,186.6,291.8,186.6,291.8z"/>
<path id="path371" inkscape:connector-curvature="0" d="M192.3,295.9c0,0,2.5-2.2,6.4-2.4C195.6,295.9,192.3,295.9,192.3,295.9z"/>
<path id="path373" inkscape:connector-curvature="0" d="M200.4,283.3c0-0.2,2.4-0.6,5.1,0C202.7,284.9,200.4,283.1,200.4,283.3z"/>
<path id="path375" inkscape:connector-curvature="0" d="M202,287.4c0.1,0,1.9-1.1,4.6-1.2C204.6,288.5,201.9,287.5,202,287.4z"/>
<path id="path377" inkscape:connector-curvature="0" d="M201.1,290.2c-0.2-0.1,2.7-0.4,3.6,2.4C202.4,291.7,201.2,290.3,201.1,290.2
	z"/>
<path id="path379" inkscape:connector-curvature="0" d="M205.9,291.2c-1.1,0,1.2-3.1,3.8-1.5C207.2,290.8,205.6,290.6,205.9,291.2z"
	/>
<path id="path381" inkscape:connector-curvature="0" d="M239.9,270.9c0.1-0.1,0.6,2.8,3.5,5.5c1.8,1,3.6,3.7,3.5,6.5l0,1.1
	c-1.1,1.3-0.9,0.2-1.4,0.5c-0.7-0.2-1.4-0.3-2.1-0.4c-1.4-0.2-2.8,0.6-4.4,0.9c1.4-0.6,2.7-1.6,4.4-1.6c0.8,0,1.5,0.1,2.2,0.2
	c0,0.2,1.5-0.1,0.3,0.4l-0.1-1c-0.1-2.8-1.3-4.6-3-5.9C239.8,273.8,240.1,270.8,239.9,270.9L239.9,270.9z"/>
<path id="path383" inkscape:connector-curvature="0" d="M239.6,283.9c0,0.2-1.6-0.6-0.6-2C240.3,282.9,239.4,283.8,239.6,283.9z"/>
<path id="path385" inkscape:connector-curvature="0" d="M241.9,283.2c0.1,0.6-2.1-0.6-0.7-2C242.4,282.4,241.5,283.1,241.9,283.2z"
	/>
<path id="path387" inkscape:connector-curvature="0" d="M244,282.7c0,0.3-1.7-0.4-0.7-1.9C244.5,281.7,243.8,282.5,244,282.7z"/>
<path id="path389" inkscape:connector-curvature="0" d="M216.7,327.4c0.1,0,1.2,2.1,1.9,5C215.7,330.4,216.7,327.3,216.7,327.4z"/>
<path id="path391" inkscape:connector-curvature="0" d="M220.1,326.4c0.1,0.1,1.4,1.1,1.8,3.3C219.6,328.7,220.1,326.3,220.1,326.4z
	"/>
<path id="path393" inkscape:connector-curvature="0" d="M290.5,238.9c0.1,0.1,1.4,0.7,2.3,2.3C290.3,241.3,290.4,238.6,290.5,238.9z
	"/>
<path id="path395" inkscape:connector-curvature="0" d="M289.1,240.3c0,0.2,1.3,0.7,2.4,2.6C289,243,288.8,240.1,289.1,240.3z"/>
<path id="path397" inkscape:connector-curvature="0" d="M288.8,242.8c0,0,2.1,0.4,2.7,2.7C289.2,244.8,288.8,242.8,288.8,242.8z"/>
<path id="path399" inkscape:connector-curvature="0" d="M288.5,245c0.1,0,1.8,1.2,3.3,3.4C288.7,247.9,288.4,244.9,288.5,245z"/>
<path id="path401" inkscape:connector-curvature="0" d="M286.3,250.9c0.2,0,1.5,2.6,4.1,4.9C286.1,255.1,286.3,250.5,286.3,250.9z"
	/>
<path id="path403" inkscape:connector-curvature="0" d="M283.8,259.4c0.2,0,1.5,2.6,4.1,4.9C283.6,263.6,283.8,259,283.8,259.4z"/>
<path id="path405" inkscape:connector-curvature="0" d="M286.2,257c0.2,0,1.3,1.1,2.8,2.4C286.1,260,286,256.7,286.2,257z"/>
<path id="path407" inkscape:connector-curvature="0" d="M288.8,248.9c0.2,0.1,1.1,0.7,2.4,1.8C288.7,251.7,288.5,248.6,288.8,248.9z
	"/>
<path id="path409" inkscape:connector-curvature="0" d="M281,266.1c0.2,0,1.3,2.7,3.8,5.2C280.4,270.4,281,265.8,281,266.1z"/>
<path id="path411" inkscape:connector-curvature="0" d="M277.8,274.4c0.2,0,1.3,2.7,3.7,5.2C277.2,278.6,277.8,274,277.8,274.4z"/>
<path id="path413" inkscape:connector-curvature="0" d="M280.3,272.3c0.2,0.1,1.2,1.2,2.6,2.7C280,275.2,280.2,271.9,280.3,272.3z"
	/>
<path id="path415" inkscape:connector-curvature="0" d="M283.5,264.4c0.2,0.1,1,0.8,2.3,2C283.3,267.1,283.3,264,283.5,264.4z"/>
<path id="path417" inkscape:connector-curvature="0" d="M272.6,278.9c0.2,0,0.7,2.9,2.7,5.8C271.2,283,272.6,278.6,272.6,278.9z"/>
<path id="path419" inkscape:connector-curvature="0" d="M267.9,286.4c0.2,0,0.7,2.9,2.7,5.8C266.5,290.5,267.9,286.1,267.9,286.4z"
	/>
<path id="path421" inkscape:connector-curvature="0" d="M270.8,284.8c0.2,0.1,1,1.4,2.1,3.1C269.9,287.7,270.7,284.5,270.8,284.8z"
	/>
<path id="path423" inkscape:connector-curvature="0" d="M275.4,277.7c0.2,0.2,0.9,0.9,1.9,2.4C274.7,280.3,275.3,277.3,275.4,277.7z
	"/>
<path id="path425" inkscape:connector-curvature="0" d="M262.6,291.9c0.2,0.1,0.2,3,1.7,6.2C260.6,295.7,262.7,291.5,262.6,291.9z"
	/>
<path id="path427" inkscape:connector-curvature="0" d="M265.6,291.1c0.1,0.2,0.7,1.1,1.5,2.6C264.4,293.6,265.5,290.7,265.6,291.1z
	"/>
<path id="path429" inkscape:connector-curvature="0" d="M260.8,293.5c0.2,0.1,0.7,3.3,2.3,6.9C259.3,297.6,260.9,293.2,260.8,293.5z
	"/>
<path id="path431" inkscape:connector-curvature="0" d="M259.2,295.1c0.2,0.1,0.7,3.3,2.3,6.9C257.7,299.2,259.3,294.8,259.2,295.1z
	"/>
<path id="path433" inkscape:connector-curvature="0" d="M257.7,296.6c0.2,0.1,0.7,3.3,2.3,6.9C256.2,300.8,257.7,296.3,257.7,296.6z
	"/>
<path id="path435" inkscape:connector-curvature="0" d="M256.1,298.2c0.2,0.1,0.7,3.3,2.3,6.9C254.6,302.3,256.2,297.9,256.1,298.2z
	"/>
<path id="path437" inkscape:connector-curvature="0" d="M254.5,299.8c0.2,0.1,0.7,3.3,2.3,6.9C253,303.9,254.6,299.5,254.5,299.8
	L254.5,299.8z"/>
<path id="path439" inkscape:connector-curvature="0" d="M253,301.3c0.2,0.1,0.7,3.3,2.3,6.9C251.5,305.5,253,301.1,253,301.3z"/>
<path id="path441" inkscape:connector-curvature="0" d="M251.4,302.9c0.2,0.1,0.7,3.3,2.3,6.9C249.9,307,251.5,302.6,251.4,302.9z"
	/>
<path id="path443" inkscape:connector-curvature="0" d="M249.8,304.5c0.2,0.1,0.7,3.3,2.3,6.9C248.3,308.6,249.9,304.2,249.8,304.5z
	"/>
<path id="path445" inkscape:connector-curvature="0" d="M248.3,306c0.1,0.1,0.7,3.3,2.3,6.9C246.8,310.2,248.3,305.8,248.3,306z"/>
<path id="path447" inkscape:connector-curvature="0" d="M245.8,307.6c0.2,0.1,0.7,3.3,2.3,6.9C244.3,311.7,245.9,307.3,245.8,307.6z
	"/>
<path id="path449" inkscape:connector-curvature="0" d="M244.3,309.2c0.2,0.1,0.7,3.3,2.3,6.9C242.8,313.3,244.3,308.9,244.3,309.2z
	"/>
<path id="path451" inkscape:connector-curvature="0" d="M242.7,310.7c0.2,0.1,0.7,3.3,2.3,6.9C241.2,314.9,242.8,310.5,242.7,310.7z
	"/>
<path id="path453" inkscape:connector-curvature="0" d="M241.1,312.3c0.2,0.1,0.7,3.3,2.3,6.9C239.6,316.5,241.2,312,241.1,312.3z"
	/>
<path id="path455" inkscape:connector-curvature="0" d="M239.6,313.9c0.2,0.1,0.7,3.3,2.3,6.9C238.1,318,239.6,313.6,239.6,313.9z"
	/>
<path id="path457" inkscape:connector-curvature="0" d="M237,313.1c0.2,0.1,0.7,3.3,2.3,6.9C235.5,317.3,237.1,312.9,237,313.1z"/>
<path id="path459" inkscape:connector-curvature="0" d="M235.5,314.7c0.1,0.1,0.7,3.3,2.3,6.9C234,318.8,235.6,314.4,235.5,314.7z"
	/>
<path id="path461" inkscape:connector-curvature="0" d="M233.9,316.3c0.2,0.1,0.7,3.3,2.3,6.9C232.4,320.4,234,316,233.9,316.3z"/>
<path id="path463" inkscape:connector-curvature="0" d="M232.3,317.8c0.2,0.1,0.7,3.3,2.3,6.9C230.8,322,232.4,317.6,232.3,317.8z"
	/>
<path id="path465" inkscape:connector-curvature="0" d="M230.8,319.4c0.2,0.1,0.7,3.3,2.3,6.9C229.3,323.5,230.9,319.1,230.8,319.4z
	"/>
<path id="path467" inkscape:connector-curvature="0" d="M230.2,317.5c0.2,0,0.7,3.3,2.3,6.9C228.7,321.6,230.3,317.2,230.2,317.5z"
	/>
<path id="path469" inkscape:connector-curvature="0" d="M228.6,319c0.2,0.1,0.7,3.3,2.3,6.9C227.1,323.2,228.7,318.7,228.6,319z"/>
<path id="path471" inkscape:connector-curvature="0" d="M227.1,320.6c0.2,0.1,0.7,3.3,2.3,6.9C225.6,324.7,227.2,320.3,227.1,320.6z
	"/>
<path id="path473" inkscape:connector-curvature="0" d="M225.5,322.2c0.2,0.1,0.7,3.3,2.3,6.9C224,326.3,225.6,321.9,225.5,322.2z"
	/>
<path id="path475" inkscape:connector-curvature="0" d="M223.9,323.7c0.1,0.1,0.7,3.3,2.3,6.9C222.4,327.9,224,323.4,223.9,323.7z"
	/>
<path id="path477" inkscape:connector-curvature="0" d="M283.8,280.2c0.1,0.2,0.3,2,1.1,4.5C282,283.1,283.9,279.9,283.8,280.2z"/>
<path id="path479" inkscape:connector-curvature="0" d="M278.8,288.4c0.1,0.1,1.3,1.3,2.3,3.5C278.3,291.1,278.7,288.1,278.8,288.4z
	"/>
<path id="path481" inkscape:connector-curvature="0" d="M277.6,290.3c0,0.3,0.8,1,1.3,2.9C276.5,292.7,277.4,290,277.6,290.3z"/>
<path id="path483" inkscape:connector-curvature="0" d="M275.5,292.2c0.1,0.1,1.4,1.6,2.7,3.8C275,295.3,275.5,292,275.5,292.2z"/>
<path id="path485" inkscape:connector-curvature="0" d="M274,294.8c0.1,0.1,0.9,2,1.6,4.7C272.8,297.7,274,294.6,274,294.8z"/>
<path id="path487" inkscape:connector-curvature="0" d="M216.8,336.5c0.2,0,1.3,1.8,2.6,4C216.2,339.7,216.8,336.2,216.8,336.5z"/>
<path id="path489" inkscape:connector-curvature="0" d="M218.4,336.6c0.1,0,1.9,1.1,3.3,3.3C218.7,339.4,218.4,336.5,218.4,336.6z"
	/>
<path id="path491" inkscape:connector-curvature="0" d="M221.2,335.6c0.2,0,1.3,1.8,2.6,4C220.5,338.7,221.2,335.3,221.2,335.6z"/>
<path id="path493" inkscape:connector-curvature="0" d="M222.7,335.7c0.1,0,1.9,1.1,3.3,3.3C223,338.5,222.7,335.6,222.7,335.7z"/>
<path id="path495" inkscape:connector-curvature="0" d="M225.6,333.9c0.2,0,1.3,1.8,2.6,4C225,337,225.6,333.6,225.6,333.9z"/>
<path id="path497" inkscape:connector-curvature="0" d="M227.2,334c0.1,0,1.9,1.1,3.3,3.3C227.4,336.8,227.1,333.9,227.2,334z"/>
<path id="path499" inkscape:connector-curvature="0" d="M229.3,331.9c0.2,0,1.3,1.8,2.6,4C228.7,335.1,229.3,331.6,229.3,331.9z"/>
<path id="path501" inkscape:connector-curvature="0" d="M230.9,332c0.1,0,1.9,1.1,3.3,3.3C231.1,334.8,230.8,331.9,230.9,332z"/>
<path id="path503" inkscape:connector-curvature="0" d="M233.6,331c0.2,0,1.3,1.8,2.6,4C233,334.1,233.6,330.7,233.6,331z"/>
<path id="path505" inkscape:connector-curvature="0" d="M235.2,331.1c0.1,0,1.9,1.1,3.3,3.3C235.4,333.9,235.1,331,235.2,331.1z"/>
<path id="path507" inkscape:connector-curvature="0" d="M238.1,329.3c0.2,0,1.3,1.8,2.6,4C237.4,332.5,238.1,329,238.1,329.3z"/>
<path id="path509" inkscape:connector-curvature="0" d="M239.6,329.4c0.1,0,1.9,1.1,3.3,3.3C239.9,332.2,239.6,329.3,239.6,329.4z"
	/>
<path id="path511" inkscape:connector-curvature="0" d="M240.7,326.1c0.2,0,1.3,1.8,2.6,4C240,329.3,240.7,325.8,240.7,326.1z"/>
<path id="path513" inkscape:connector-curvature="0" d="M242.2,326.2c0.1,0,1.9,1.1,3.3,3.3C242.5,329,242.2,326.1,242.2,326.2z"/>
<path id="path515" inkscape:connector-curvature="0" d="M245,325.2c0.2,0,1.3,1.8,2.6,4C244.4,328.4,245,324.9,245,325.2z"/>
<path id="path517" inkscape:connector-curvature="0" d="M246.5,325.3c0.1,0,1.9,1.1,3.3,3.3C246.8,328.1,246.5,325.2,246.5,325.3z"
	/>
<path id="path519" inkscape:connector-curvature="0" d="M249.4,323.5c0.2,0,1.3,1.8,2.6,4C248.8,326.7,249.4,323.2,249.4,323.5z"/>
<path id="path521" inkscape:connector-curvature="0" d="M251,323.6c0.1,0,1.9,1.1,3.3,3.3C251.2,326.4,251,323.5,251,323.6z"/>
<path id="path523" inkscape:connector-curvature="0" d="M251.6,321.2c0.2,0,1.9,1.1,4,2.6C252.3,324.3,251.5,320.9,251.6,321.2z"/>
<path id="path525" inkscape:connector-curvature="0" d="M253.1,320.7c0.1,0,2.2,0.3,4.3,1.7C254.4,323.1,253,320.5,253.1,320.7z"/>
<path id="path527" inkscape:connector-curvature="0" d="M255.2,318.6c0.2,0,1.9,1.1,4,2.6C255.8,321.7,255,318.3,255.2,318.6z"/>
<path id="path529" inkscape:connector-curvature="0" d="M256.6,318.1c0.1,0,2.2,0.3,4.3,1.7C258,320.5,256.6,318,256.6,318.1z"/>
<path id="path531" inkscape:connector-curvature="0" d="M258.6,315.2c0.2,0,1.9,1.1,4,2.6C259.2,318.4,258.4,315,258.6,315.2z"/>
<path id="path533" inkscape:connector-curvature="0" d="M260,314.8c0.1,0,2.2,0.3,4.3,1.7C261.4,317.2,259.9,314.6,260,314.8z"/>
<path id="path535" inkscape:connector-curvature="0" d="M261.3,312.5c0.2-0.1,2.1,0.8,4.4,1.8C262.6,315.5,261.2,312.3,261.3,312.5z
	"/>
<path id="path537" inkscape:connector-curvature="0" d="M262.7,311.7c0.1,0,2.2-0.1,4.6,0.9C264.5,313.9,262.6,311.7,262.7,311.7z"
	/>
<path id="path539" inkscape:connector-curvature="0" d="M264.3,309.3c0.2-0.1,2.1,0.8,4.4,1.8C265.6,312.3,264.2,309.1,264.3,309.3z
	"/>
<path id="path541" inkscape:connector-curvature="0" d="M265.7,308.5c0.1,0,2.2-0.1,4.6,0.9C267.5,310.7,265.6,308.4,265.7,308.5z"
	/>
<path id="path543" inkscape:connector-curvature="0" d="M267,305.4c0.2-0.1,2.1,0.8,4.4,1.8C268.3,308.3,266.9,305.2,267,305.4z"/>
<path id="path545" inkscape:connector-curvature="0" d="M268.4,304.6c0.1,0,2.2-0.1,4.6,0.9C270.2,306.8,268.3,304.5,268.4,304.6z"
	/>
<path id="path547" inkscape:connector-curvature="0" d="M270.3,302.7c0.1,0,2.2-0.1,4.6,0.9C272.1,304.9,270.2,302.6,270.3,302.7z"
	/>
<path id="path549" inkscape:connector-curvature="0" d="M271.2,299.3c0.1,0,2.2-0.1,4.6,0.9C272.9,301.5,271,299.2,271.2,299.3z"/>
<path id="path551" inkscape:connector-curvature="0" d="M217.6,262.1c-0.1-0.1,0.9,0.2,1.6,0.1c-0.2,0-0.1-2.3,0.5-3.7
	c0.2,1.8,1.2,2.8-0.3,4.5C217.9,262.8,217.7,262,217.6,262.1z"/>
<path id="path553" inkscape:connector-curvature="0" d="M220.8,265.2c0-0.8,4.8,3.8,4.9-2.9c0.2,1.2,0.3,2.4,0.1,3.5
	c0,1.7-2.5,1.4-2.8,0.9C221.4,266,220.8,265.2,220.8,265.2L220.8,265.2z"/>
<path id="path555" inkscape:connector-curvature="0" d="M147.7,230.6c0,0-0.5,1.1,0.3,2.3c0.6,1.1,2.7,3.4,1.5,5.9
	c0-2.5-1.7-3.9-2.3-5.6C146.5,231.4,147.7,230.5,147.7,230.6L147.7,230.6z"/>
<path id="path557" inkscape:connector-curvature="0" d="M150.9,230.1c0.1-0.1-1.2,1.1-0.1,2.3c1,1,3.6,3.2,3,6.1
	c-0.7-2.7-2.6-3.9-3.7-5.7C149,230.5,151.2,229.9,150.9,230.1L150.9,230.1z"/>
<path id="path559" inkscape:connector-curvature="0" d="M154.6,228.8c0.3,0.1,0.7,1.9,2.1,3.9C153.4,232,154.7,228.4,154.6,228.8z"
	/>
<path id="path561" inkscape:connector-curvature="0" d="M156.5,225.2c0,0,1.1,0.2,1.9,1.8c1.2,1.5-1,4.5,1.5,5
	c-3.5,0.2-1.6-4.1-2.3-4.7C157.3,226,156.5,225.2,156.5,225.2z"/>
<path id="path563" inkscape:connector-curvature="0" d="M158.5,220.6c0.3-0.1,1.4,3.4,4.6,6.2C158.2,225.6,158.7,220.2,158.5,220.6
	L158.5,220.6z"/>
<path id="path565" inkscape:connector-curvature="0" d="M159.6,216.2c0,0,1,0.5,2,1.9c1.2,1.1,1.1,4.5,3.4,4.4
	c-3,1.2-3.5-3.2-4.2-3.9C160.2,217.1,159.6,216.2,159.6,216.2L159.6,216.2z"/>
<path id="path567" inkscape:connector-curvature="0" d="M159.4,212.5c-0.2-0.2,4,0.6,5.6,4.3C161.8,214.8,159.5,212.6,159.4,212.5
	L159.4,212.5z"/>
<path id="path569" inkscape:connector-curvature="0" d="M161.3,209.1c0,0,0.7-0.4,2,0c1.4,0.5,1.9,2,3.9,1.4
	c-1.5,1.9-3.8-0.3-4.2-0.6C162.1,209.3,161.3,209.1,161.3,209.1L161.3,209.1z"/>
<path id="path571" inkscape:connector-curvature="0" d="M161.9,205.6c-0.2,0.1,0-1.2,1.4-1.1c1.2-0.2,2.6,1,3.7-0.2
	C164.4,207.4,161.5,204.1,161.9,205.6L161.9,205.6z"/>
<path id="path573" inkscape:connector-curvature="0" d="M159.6,202.3c0,0,0.6-0.9,2.2-1.5c1.9-0.2,3.2-0.5,5.1-2.3
	c-0.5,2.5-3.7,3.4-4.9,3.1C160.6,201.8,159.6,202.3,159.6,202.3L159.6,202.3z"/>
<path id="path575" inkscape:connector-curvature="0" d="M144.1,233.2c-0.3,0.1,1.7,3.6,1.6,8.8C143.7,237.6,143.7,232.8,144.1,233.2
	z"/>
<path id="path577" inkscape:connector-curvature="0" d="M140.9,232.7c0,0,0.2,1.3,0.5,3.2c0.3,1.6,1.7,5.1-0.5,7.6
	c1-2.9-0.3-5.3-0.4-7.5C140.5,233.9,140.9,232.7,140.9,232.7z"/>
<path id="path579" inkscape:connector-curvature="0" d="M138,232.1c-1.3-0.1,1,4.1-1,9.4C136.6,236.6,136.7,231.5,138,232.1z"/>
<path id="path581" inkscape:connector-curvature="0" d="M133.8,230.8c-0.2,0.3-0.4,4.4,1.3,10.1C131.3,236,133.5,230.4,133.8,230.8z
	"/>
<path id="path583" inkscape:connector-curvature="0" d="M128.3,228.7c0,0.1,1.3,2.2,1.9,5.3C127.4,231.8,128.2,228.6,128.3,228.7z"
	/>
<path id="path585" inkscape:connector-curvature="0" d="M108.1,198.8c0.2,0.1,1.2,1.2,2.6,2.8C107.7,201.7,108,198.5,108.1,198.8z"
	/>
<path id="path587" inkscape:connector-curvature="0" d="M111.3,199.4c0.2,0,1.9,1.3,4.6,2.5C112.4,202.9,111.1,199.2,111.3,199.4z"
	/>
<path id="path589" inkscape:connector-curvature="0" d="M116,199.9c0.1,0.3,1.3,0.8,3.4,1.8C116.7,203,115.4,199.7,116,199.9z"/>
<path id="path591" inkscape:connector-curvature="0" d="M120.9,198.9c0.2,0.1,1.5,0.6,3.9,1.3C122.2,201.9,120.5,198.7,120.9,198.9z
	"/>
<path id="path593" inkscape:connector-curvature="0" d="M124.8,196.9c0.2,0.3,1.7,0.2,4.3,0.8C126.5,199.4,124.3,196.9,124.8,196.9z
	"/>
<path id="path595" inkscape:connector-curvature="0" d="M128.8,194.8c0.2,0.1,1.9,0.5,4.6,0C131.1,197.6,128.2,194.7,128.8,194.8z"
	/>
<path id="path597" inkscape:connector-curvature="0" d="M133.2,190.7c0.2,0.1,1.6-0.1,3.8,0C135.1,192.9,132.8,190.8,133.2,190.7z"
	/>
<path id="path599" inkscape:connector-curvature="0" d="M136.9,187.7c0.2,0.1,1.8-0.2,4.3-0.3C139.1,189.8,136.5,187.7,136.9,187.7z
	"/>
<path id="path601" inkscape:connector-curvature="0" d="M142.2,185.1c0.1,0.6,1-0.4,3.3,0C143.9,187.2,141.3,185.3,142.2,185.1z"/>
<path id="path603" inkscape:connector-curvature="0" d="M146.1,182.9c0.2,0.3,1.4-0.3,3.6,0.3C147.8,185,145.6,183,146.1,182.9z"/>
<path id="path605" inkscape:connector-curvature="0" d="M150.7,180.4c0.3,0.3,0.5,1.1,2.6,0.9c-0.5,1-2,1.4-2.6,0.4
	C150.3,180.9,150.7,180.4,150.7,180.4z"/>
<path id="path607" inkscape:connector-curvature="0" d="M154.5,184.2c-0.2,0.1-1.6,0.5-3.3,1.9C151.4,182.9,155.1,184.1,154.5,184.2
	z"/>
<path id="path609" inkscape:connector-curvature="0" d="M149.3,185.2c0,0.2-1.1,1.8-2.5,3.9C146.2,185.8,149.5,185,149.3,185.2z"/>
<path id="path611" inkscape:connector-curvature="0" d="M132.4,230.9c0.1,0.1-0.7-0.9,0-2.4c0.8-1.4,2-2.4,1-4.6
	c2.4,1.3,0.6,4.5-0.2,5C132.4,229.9,132.4,231,132.4,230.9z"/>
<path id="path613" inkscape:connector-curvature="0" d="M132,217.2c0.5-0.6-0.4,4.5,2.9,2.9c-0.8,2.4-4.1,0.3-3.3-1
	C131.6,217.9,132,217.2,132,217.2L132,217.2z"/>
<path id="path615" inkscape:connector-curvature="0" d="M133.2,213.9c0,0,0.4,1,0.9,2.5c0.3,0.5,0.5,2.3,0.6,1.1
	c0.7-0.7,1.4-1.6,2.3-2.5c-0.4,1.2-0.9,2.2-1.6,3.1c-1.9,1.8-2.1-1.4-2.2-1.6C133,214.9,133.2,213.9,133.2,213.9L133.2,213.9z"/>
<path id="path617" inkscape:connector-curvature="0" d="M134.1,209.4c0,0,0.4,1,0.9,2.5c0.3,0.5,0.5,2.3,0.6,1.1
	c0.7-0.7,1.4-1.6,2.3-2.5c-0.4,1.2-0.9,2.2-1.6,3.1c-1.9,1.8-2.1-1.4-2.2-1.6C133.9,210.4,134.1,209.4,134.1,209.4L134.1,209.4z"/>
<path id="path619" inkscape:connector-curvature="0" d="M136.2,204c0,0,0.4,1,0.9,2.5c0.3,0.5,0.5,2.3,0.6,1.1
	c0.7-0.7,1.4-1.6,2.3-2.5c-0.4,1.2-0.9,2.2-1.6,3.1c-1.9,1.8-2.1-1.4-2.2-1.6C136,205.1,136.2,204,136.2,204L136.2,204z"/>
<path id="path621" inkscape:connector-curvature="0" d="M137.8,199.5c0,0,0.4,1,0.9,2.5c0.3,0.5,0.5,2.3,0.6,1.1
	c0.7-0.7,1.4-1.6,2.3-2.5c-0.4,1.2-0.9,2.2-1.6,3.1c-1.9,1.8-2.1-1.4-2.2-1.6C137.7,200.5,137.9,199.5,137.8,199.5z"/>
<path id="path623" inkscape:connector-curvature="0" d="M139.8,194c0,0,0.4,1,0.9,2.5c0.3,0.5,0.5,2.3,0.6,1.1
	c0.7-0.7,1.4-1.6,2.3-2.5c-0.4,1.2-0.9,2.2-1.6,3.1c-1.9,1.8-2.1-1.4-2.2-1.6C139.7,195.1,139.8,194,139.8,194z"/>
<path id="path625" inkscape:connector-curvature="0" d="M142.1,188.9c0,0,0.4,1,0.9,2.5c0.3,0.5,0.5,2.3,0.6,1.1
	c0.7-0.7,1.4-1.6,2.3-2.5c-0.4,1.2-0.9,2.2-1.6,3.1c-1.9,1.8-2.1-1.4-2.2-1.6C142,189.9,142.1,188.9,142.1,188.9L142.1,188.9z"/>
<path id="path627" inkscape:connector-curvature="0" d="M125.3,284.3c-0.4,0.4,1.2-5.4,6.6-4.3C127.4,281.1,125.4,284.4,125.3,284.3
	z"/>
<path id="path629" inkscape:connector-curvature="0" d="M131.8,291.7c-0.1,0.3-0.6-3.4,2.8-4.5C133,289.7,131.9,291.6,131.8,291.7z"
	/>
<path id="path631" inkscape:connector-curvature="0" d="M123.8,277.9c-0.7-0.4,3-3,6.8-0.8C126.6,277.2,123.7,277.3,123.8,277.9z"/>
<path id="path633" inkscape:connector-curvature="0" d="M137.9,292.7c-0.1,0.6-1.5-5,3.7-6.1C138.3,289.1,138.1,292.7,137.9,292.7z"
	/>
<path id="path635" inkscape:connector-curvature="0" d="M160.2,235.4c-0.1-0.1-2.2,5.4-1.6,14.4c0.2,4.5,0.6,9.9-0.2,15.9
	c-0.8,5.7-3.4,13.1-10.3,15.3c6.5-2.8,8.6-9.9,9.3-15.5c0.7-5.8,0.4-11.2,0.3-15.7C157.4,240.6,160.1,235.3,160.2,235.4L160.2,235.4
	z"/>
<path id="path637" inkscape:connector-curvature="0" d="M158.1,251.6c-0.1-0.5-0.7-0.9-3-1.2C157.6,248.2,159.1,251.9,158.1,251.6z"
	/>
<path id="path639" inkscape:connector-curvature="0" d="M158.1,249c-0.1-0.5-0.7-0.9-3-1.2C157.6,245.6,159.1,249.3,158.1,249z"/>
<path id="path641" inkscape:connector-curvature="0" d="M158,245.1c-0.1-0.5-0.7-0.9-3-1.2C157.5,241.7,159,245.5,158,245.1z"/>
<path id="path643" inkscape:connector-curvature="0" d="M158.4,241.4c-0.1-0.5-0.7-0.9-3-1.2C157.9,238,159.4,241.7,158.4,241.4z"/>
<path id="path645" inkscape:connector-curvature="0" d="M139.6,161.7c-0.2,0.2,3.4-2.2,6.6,0.8C142.7,161.8,139.6,161.9,139.6,161.7
	z"/>
<path id="path647" inkscape:connector-curvature="0" d="M145.5,162c-0.3,0.1,0.4-3.7-2.5-6.5C148,157.2,145.3,162.7,145.5,162z"/>
<path id="path649" inkscape:connector-curvature="0" d="M140.7,166c0,0,0.3-0.8,1.5-1.2c1.5-0.2,2.4,0.2,4.2-0.4
	C143.4,166.9,140.7,165,140.7,166L140.7,166z"/>
<path id="path651" inkscape:connector-curvature="0" d="M141.1,168.5c0,0,0.3-0.8,1.5-1.3c1.5-0.2,2.4,0.2,4.2-0.4
	C143.7,169.4,141,167.6,141.1,168.5L141.1,168.5z"/>
<path id="path653" inkscape:connector-curvature="0" d="M141.5,173c0,0,0.3-0.8,1.5-1.2c1.5-0.2,2.4,0.2,4.2-0.4
	C144.2,173.9,141.4,172.1,141.5,173L141.5,173z"/>
<path id="path655" inkscape:connector-curvature="0" d="M141.7,177c0,0,0.3-0.8,1.5-1.2c1.5-0.2,2.4,0.2,4.2-0.4
	C144.4,177.9,141.7,176,141.7,177L141.7,177z"/>
<path id="path657" inkscape:connector-curvature="0" d="M140.5,182.1c0,0,0.3-0.8,1.5-1.2c1.5-0.2,2.4,0.2,4.2-0.4
	C143.2,183,140.5,181.1,140.5,182.1L140.5,182.1z"/>
<path id="path659" inkscape:connector-curvature="0" d="M253.3,179.8c0-0.1,0.8,1.9,3.2,3.3c2.1,0.9,7.4-1.1,10.6,2.6
	c-3.8-2.7-7.8-0.4-11-1.9C253.4,181.9,253.4,179.7,253.3,179.8L253.3,179.8z"/>
<path id="path661" inkscape:connector-curvature="0" d="M182.6,267.7c-0.1-0.1,2.4-0.5,3.1,2C183.6,269.1,182.7,267.7,182.6,267.7z"
	/>
<path id="path663" inkscape:connector-curvature="0" d="M185.5,266.7c-0.4-0.2,2.8-0.5,2.4,2.2C186.5,267.7,185.7,266.9,185.5,266.7
	z"/>
<path id="path665" inkscape:connector-curvature="0" d="M189.3,266.3c-0.4-0.2,2.8-0.5,2.4,2.2C190.3,267.3,189.4,266.5,189.3,266.3
	z"/>
<path id="path667" inkscape:connector-curvature="0" d="M191.8,266.3c-0.4-0.2,2.8-0.5,2.4,2.2C192.8,267.3,192,266.5,191.8,266.3z"
	/>
<path id="path669" inkscape:connector-curvature="0" d="M195.7,266c-0.4-0.2,2.8-0.5,2.4,2.2C196.7,266.9,195.9,266.1,195.7,266z"/>
<path id="path671" inkscape:connector-curvature="0" d="M198.7,265.5c-0.4-0.2,2.8-0.5,2.4,2.2C199.6,266.5,198.8,265.7,198.7,265.5
	z"/>
<path id="path673" inkscape:connector-curvature="0" d="M96.5,161.5c-0.2,0.4,0-2.9,2.8-2.3C97.4,160.1,96.6,161.5,96.5,161.5z"/>
<path id="path675" inkscape:connector-curvature="0" d="M100.5,179.2c0.1-0.1,1.7,0.7,3.9,1.4C101.8,181.6,100.4,179,100.5,179.2z"
	/>
<path id="path677" inkscape:connector-curvature="0" d="M103.6,177.1c0.1-0.1,1.5,1.4,3.9,1.2C104.8,180.2,103.2,176.8,103.6,177.1z
	"/>
<path id="path679" inkscape:connector-curvature="0" d="M105.8,174.1c0.2,0,1,0.9,2.7,0.7C106.7,176.7,105.4,173.8,105.8,174.1z"/>
<path id="path681" inkscape:connector-curvature="0" d="M106.9,171.1c0.1-0.1,1.8,0.6,4,0.2C108.8,173.4,106.6,170.9,106.9,171.1z"
	/>
<path id="path683" inkscape:connector-curvature="0" d="M107.6,169.2c0.2,0,1.2-0.6,2.6-1.9C110,169.9,107.2,169.5,107.6,169.2z"/>
<path id="path685" inkscape:connector-curvature="0" d="M105.6,166.9c0.2-0.1,1-0.7,1.9-2.3C108.3,167.1,105.3,167.3,105.6,166.9z"
	/>
<path id="path687" inkscape:connector-curvature="0" d="M105,164.4c0.3-0.1,0.1-0.8,0.9-2.1C106.9,163.9,104.9,164.9,105,164.4z"/>
<path id="path689" inkscape:connector-curvature="0" d="M102.2,162.9c0.2-0.2,0.4-0.7,1-2C104.3,162.6,101.9,163.3,102.2,162.9z"/>
<path id="path691" inkscape:connector-curvature="0" d="M99.5,161.9c0,0.3-0.4-2.3,2.1-2.4C100.4,160.7,99.7,162,99.5,161.9z"/>
<path id="path693" inkscape:connector-curvature="0" d="M109.1,158.1c0.2,0.3-0.1-3.1,4-4.7c5-1.1,7.3,5.9,12.2,7.7
	c-5.7-1-8.2-7.7-12-6.8C109.8,155.2,109.1,158.4,109.1,158.1z"/>
<path id="path695" inkscape:connector-curvature="0" d="M110,156.1c0,0,1.2,1.3,3,3c2.1,2.1,4.8,2.5,7.7-0.8c-1,1.6-2.2,3.5-4.3,3.6
	c-1.9,0.2-3.2-1.5-4.1-2.4C110.7,157.6,110,156.1,110,156.1L110,156.1z"/>
<path id="path697" inkscape:connector-curvature="0" d="M109.4,155.1c-0.6,0.5,2.7-7,9.9-4.5C112.5,149.8,109.3,155.3,109.4,155.1z"
	/>
<path id="path699" inkscape:connector-curvature="0" d="M170.6,176.8c-0.3-0.7,3.6-0.9,7,0.2C173.5,178.2,170.9,176.2,170.6,176.8z"
	/>
<path id="path701" inkscape:connector-curvature="0" d="M181,172.6c0,0.2-1.4,1.4-3.1,3.1C177.8,172.5,181.3,172.5,181,172.6z"/>
<path id="path703" inkscape:connector-curvature="0" d="M82.6,158.1c0.1,0.2,0.1,1.6,0.3,3.5C80.4,160.1,82.7,157.7,82.6,158.1z"/>
<path id="path705" inkscape:connector-curvature="0" d="M93,159.3c-0.1-0.1,0.8,2-0.4,4.2C92.7,161.2,93,159.3,93,159.3z"/>
<path id="path707" inkscape:connector-curvature="0" d="M87.3,160.4c0.3-0.4,1.2,1.9-0.7,3.2C87.4,161.7,87.6,160.5,87.3,160.4z"/>
<path id="path709" inkscape:connector-curvature="0" class="st5" d="M177.3,295.9c0,0,3.7-4.1,11.5-5.6c0-2.6-1.8-4.7-3.5-4.7
	C182.5,286.3,174,292.6,177.3,295.9z"/>
<path id="path711" inkscape:connector-curvature="0" class="st5" d="M175,289.9c0,0,3.7-4.1,11.5-5.6c0-2.6-1.8-4.7-3.5-4.7
	C180.2,280.3,171.7,286.6,175,289.9L175,289.9z"/>
<path id="path713" inkscape:connector-curvature="0" class="st5" d="M183.1,300.7c0,0,3.7-4.1,11.5-5.6c0-2.6-1.8-4.7-3.5-4.7
	C188.2,291.1,179.8,297.4,183.1,300.7z"/>
<path id="path715" inkscape:connector-curvature="0" class="st5" d="M188.8,305c0,0,3.7-4.1,11.5-5.6c0-2.6-1.8-4.7-3.5-4.7
	C194,295.4,185.5,301.7,188.8,305z"/>
<path id="path717" inkscape:connector-curvature="0" class="st5" d="M134.5,291.1c0,0-3.8,5.6-0.3,10.5c0.7-2.4,2.8-3.1,3.8-4.8
	c1-1.7,1-4.1,1-4.1S138.1,289.6,134.5,291.1L134.5,291.1z"/>
<path id="path719" inkscape:connector-curvature="0" class="st5" d="M126.1,287.8c0,0-3.8,5.6-0.3,10.5c0.7-2.4,2.8-3.1,3.8-4.8
	c1-1.7,1-4.1,1-4.1S129.7,286.2,126.1,287.8L126.1,287.8z"/>
<path id="path721" inkscape:connector-curvature="0" class="st5" d="M123.4,281.8c0,0-5.9,3.5-4.7,9.4c1.7-1.9,3.9-1.6,5.5-2.8
	c1.7-1.1,2.6-3.3,2.6-3.3S127.3,282,123.4,281.8z"/>
<path id="path723" inkscape:connector-curvature="0" class="st5" d="M123.1,274.9c0,0-6.8,0.7-8.2,6.5c2.3-1,4.2,0.2,6.2-0.1
	c2-0.3,3.8-1.9,3.8-1.9S126.6,276.7,123.1,274.9L123.1,274.9z"/>
<path id="path725" inkscape:connector-curvature="0" d="M211.7,258.9c0,0-3.5,2.9-4.9,2.8c2.5,1,5-0.2,5.1-0.3c2.3,0.9,3.4,1,3.4,1
	l-1.8-3.5L211.7,258.9L211.7,258.9z"/>
<ellipse id="ellipse727" class="st6" cx="114.3" cy="155.1" rx="0.5" ry="0.5"/>
<path id="path729" inkscape:connector-curvature="0" d="M114.7,159.7c0,0,2.3,1.3,3.8-0.3C117.4,160.1,116.4,160.1,114.7,159.7z"/>
<path id="path731" inkscape:connector-curvature="0" class="st7" d="M247.6,113.7"/>
<path id="path733" inkscape:connector-curvature="0" class="st7" d="M247.6,104.7"/>
<g id="g7074" transform="translate(0,180)">
	<path id="path6938" inkscape:connector-curvature="0" class="st8" d="M247.6-66.3"/>
	<path id="path6940" inkscape:connector-curvature="0" class="st8" d="M247.6-75.3"/>
	<path id="path6944" inkscape:connector-curvature="0" class="st9" d="M255-75.3v-93.3H253c-0.3-0.3-0.7-0.6-1.1-0.8v94.1
		C251.9-75.3,255-75.3,255-75.3z"/>
	<path id="path6956" inkscape:connector-curvature="0" class="st9" d="M251.9-146v-4.5c-8.1-1.4-13.8-0.6-17.2,0.5v4.7
		C237.3-146.5,242.8-147.7,251.9-146z"/>
	<path id="path6958" inkscape:connector-curvature="0" class="st9" d="M251.9-122.3v-4.5c-8.1-1.4-13.8-0.6-17.2,0.5v4.7
		C237.3-122.7,242.8-123.9,251.9-122.3z"/>
	<path id="path6960" inkscape:connector-curvature="0" class="st9" d="M234.7-99.6v4.7c2.6-1,8.1-2.3,17.2-0.6v-4.5
		C243.8-101.4,238.2-100.6,234.7-99.6z"/>
	<g id="g7041">
		<g id="g7034">
			<rect id="rect6946" x="255" y="-168.7" class="st10" width="61.3" height="93.3"/>
			<path id="path6948" inkscape:connector-curvature="0" class="st11" d="M234.7-121.6v22c3.5-1.1,9.1-1.8,17.2-0.5v-22.2
				C242.8-123.9,237.3-122.7,234.7-121.6z"/>
			<path id="path6950" inkscape:connector-curvature="0" class="st11" d="M251.9-150.5v-18.9c-1.8-1.1-4.1-1.8-6.5-1.8
				c-5.9,0-10.7,3.9-10.7,8.8v12.4C238.2-151.1,243.8-151.9,251.9-150.5L251.9-150.5z"/>
			<path id="path6952" inkscape:connector-curvature="0" class="st11" d="M251.9-126.7V-146c-9.1-1.6-14.6-0.4-17.2,0.6v19.1
				C238.2-127.3,243.8-128.1,251.9-126.7z"/>
			<path id="path6954" inkscape:connector-curvature="0" class="st11" d="M234.7-94.9v22.8l0.1,0c0.5-3.4,3.5-6.1,7.1-6.1
				c2.3,0,4.4,1.1,5.7,2.8h4.4v-20.2C242.8-97.2,237.3-96,234.7-94.9L234.7-94.9z"/>
		</g>
		<polygon id="polygon6962" class="st10" points="321.6,-160.2 316.3,-164.5 316.3,-75.3 321.6,-66.3 		"/>
	</g>
	<path id="path6964" inkscape:connector-curvature="0" class="st12" d="M312.2-126.6c0-6.7-7.4,0.6-7.4,0.6s7.4,7.3,7.4,0.6V-126.6z
		"/>
	<path id="path6966" inkscape:connector-curvature="0" class="st12" d="M284.9-163.7c6.5,0-0.6,10.1-0.6,10.1s-7.1-10.1-0.6-10.1
		H284.9z"/>
	<path id="path6968" inkscape:connector-curvature="0" class="st12" d="M258.1-126.2c0-6.7,7.4,0.6,7.4,0.6s-7.4,7.3-7.4,0.6V-126.2
		z"/>
	<path id="path6970" inkscape:connector-curvature="0" class="st12" d="M284.9-84.4c6.5,0-0.6-10.1-0.6-10.1s-7.1,10.1-0.6,10.1
		H284.9z"/>
	<polygon id="polygon6972" class="st13" points="304.8,-126 284.3,-94.4 265.4,-125.5 284.3,-153.7 	"/>
	<path id="path6974" inkscape:connector-curvature="0" class="st14" d="M293-154.3c-1.2,0-2.2,1-2.2,2.2v1.9c0,1.2,1,2.2,2.2,2.2
		h23.3v-6.3L293-154.3L293-154.3z M300.9-150.6c-4.2,0-7.6-0.2-7.6-0.5c0-0.3,3.4-0.5,7.6-0.5s7.6,0.2,7.6,0.5
		C308.6-150.8,305.1-150.6,300.9-150.6z"/>
	<path id="path6976" inkscape:connector-curvature="0" class="st14" d="M295-148c0,0-0.9,8.3,8.4,7.2c-2.3-1-4.3-1.2-3.8-7.2H295
		L295-148z"/>
	<path id="path6978" inkscape:connector-curvature="0" class="st14" d="M295-154.3c0,0-0.9-8.3,8.4-7.2c-2.3,1-4.3,1.2-3.8,7.2H295
		L295-154.3z"/>
	<polygon id="polygon6980" class="st14" points="316.3,-148 321.6,-144.8 321.6,-151.4 316.3,-154.3 	"/>
	<path id="path6982" inkscape:connector-curvature="0" class="st14" d="M293-100c-1.2,0-2.2,1-2.2,2.2v1.9c0,1.2,1,2.2,2.2,2.2h23.3
		v-6.3L293-100L293-100z M300.9-96.4c-4.2,0-7.6-0.2-7.6-0.5c0-0.3,3.4-0.5,7.6-0.5s7.6,0.2,7.6,0.5
		C308.6-96.6,305.1-96.4,300.9-96.4z"/>
	<path id="path6984" inkscape:connector-curvature="0" class="st14" d="M295-93.7c0,0-0.9,8.3,8.4,7.2c-2.3-1-4.3-1.2-3.8-7.2H295
		L295-93.7z"/>
	<path id="path6986" inkscape:connector-curvature="0" class="st14" d="M295-100c0,0-0.9-8.3,8.4-7.2c-2.3,1-4.3,1.2-3.8,7.2H295
		L295-100z"/>
	<polygon id="polygon6988" class="st14" points="316.3,-93.8 321.6,-90.5 321.6,-97.2 316.3,-100 	"/>
	<path id="path6990" inkscape:connector-curvature="0" class="st15" d="M316.3-75.3L316.3-75.3l-61.3,0h-3.1h-4.4
		c-1.3-1.7-3.4-2.8-5.7-2.8c-3.6,0-6.6,2.6-7.1,6.1c0,0.3-0.1,0.7-0.1,1c0,1.8,0.7,3.5,1.9,4.8h10.6h4.8h69.7L316.3-75.3L316.3-75.3
		z"/>
	<line id="line6992" class="st7" x1="235.2" y1="-72.6" x2="317.9" y2="-72.6"/>
	<line id="line6994" class="st7" x1="235.2" y1="-68.6" x2="320.2" y2="-68.6"/>
	<line id="line6996" class="st7" x1="235.2" y1="-70.6" x2="319.1" y2="-70.6"/>
	<path id="path6998" inkscape:connector-curvature="0" class="st11" d="M248-75.3h-12.8l1-5.9l10.6-2.5c0,0,0.7,1.4,1.3,1.7
		S248-75.3,248-75.3L248-75.3z"/>
	<rect id="rect7000" x="260.5" y="-72.6" class="st10" width="17.3" height="18.2"/>
	<polygon id="polygon7002" class="st16" points="277.8,-59 260.5,-59 260.5,-49.9 269.1,-52.7 277.8,-49.9 	"/>
</g>
<g id="g7110" transform="translate(-155.0731,180)">
	<path id="path7112" inkscape:connector-curvature="0" class="st8" d="M247.6-66.3"/>
	<path id="path7114" inkscape:connector-curvature="0" class="st8" d="M247.6-75.3"/>
	<path id="path7116" inkscape:connector-curvature="0" class="st9" d="M255-75.3v-93.3H253c-0.3-0.3-0.7-0.6-1.1-0.8v94.1
		C251.9-75.3,255-75.3,255-75.3z"/>
	<path id="path7118" inkscape:connector-curvature="0" class="st9" d="M251.9-146v-4.5c-8.1-1.4-13.8-0.6-17.2,0.5v4.7
		C237.3-146.5,242.8-147.7,251.9-146z"/>
	<path id="path7120" inkscape:connector-curvature="0" class="st9" d="M251.9-122.3v-4.5c-8.1-1.4-13.8-0.6-17.2,0.5v4.7
		C237.3-122.7,242.8-123.9,251.9-122.3z"/>
	<path id="path7122" inkscape:connector-curvature="0" class="st9" d="M234.7-99.6v4.7c2.6-1,8.1-2.3,17.2-0.6v-4.5
		C243.8-101.4,238.2-100.6,234.7-99.6z"/>
	<g id="g7124">
		<g id="g7126">
			<rect id="rect7128" x="255" y="-168.7" class="st10" width="61.3" height="93.3"/>
			<path id="path7130" inkscape:connector-curvature="0" class="st11" d="M234.7-121.6v22c3.5-1.1,9.1-1.8,17.2-0.5v-22.2
				C242.8-123.9,237.3-122.7,234.7-121.6z"/>
			<path id="path7132" inkscape:connector-curvature="0" class="st11" d="M251.9-150.5v-18.9c-1.8-1.1-4.1-1.8-6.5-1.8
				c-5.9,0-10.7,3.9-10.7,8.8v12.4C238.2-151.1,243.8-151.9,251.9-150.5L251.9-150.5z"/>
			<path id="path7134" inkscape:connector-curvature="0" class="st11" d="M251.9-126.7V-146c-9.1-1.6-14.6-0.4-17.2,0.6v19.1
				C238.2-127.3,243.8-128.1,251.9-126.7z"/>
			<path id="path7136" inkscape:connector-curvature="0" class="st11" d="M234.7-94.9v22.8l0.1,0c0.5-3.4,3.5-6.1,7.1-6.1
				c2.3,0,4.4,1.1,5.7,2.8h4.4v-20.2C242.8-97.2,237.3-96,234.7-94.9L234.7-94.9z"/>
		</g>
		<polygon id="polygon7138" class="st10" points="321.6,-160.2 316.3,-164.5 316.3,-75.3 321.6,-66.3 		"/>
	</g>
	<path id="path7140" inkscape:connector-curvature="0" class="st12" d="M312.2-126.6c0-6.7-7.4,0.6-7.4,0.6s7.4,7.3,7.4,0.6V-126.6z
		"/>
	<path id="path7142" inkscape:connector-curvature="0" class="st12" d="M284.9-163.7c6.5,0-0.6,10.1-0.6,10.1s-7.1-10.1-0.6-10.1
		H284.9z"/>
	<path id="path7144" inkscape:connector-curvature="0" class="st12" d="M258.1-126.2c0-6.7,7.4,0.6,7.4,0.6s-7.4,7.3-7.4,0.6V-126.2
		z"/>
	<path id="path7146" inkscape:connector-curvature="0" class="st12" d="M284.9-84.4c6.5,0-0.6-10.1-0.6-10.1s-7.1,10.1-0.6,10.1
		H284.9z"/>
	<polygon id="polygon7148" class="st13" points="304.8,-126 284.3,-94.4 265.4,-125.5 284.3,-153.7 	"/>
	<path id="path7150" inkscape:connector-curvature="0" class="st14" d="M293-154.3c-1.2,0-2.2,1-2.2,2.2v1.9c0,1.2,1,2.2,2.2,2.2
		h23.3v-6.3L293-154.3L293-154.3z M300.9-150.6c-4.2,0-7.6-0.2-7.6-0.5c0-0.3,3.4-0.5,7.6-0.5s7.6,0.2,7.6,0.5
		C308.6-150.8,305.1-150.6,300.9-150.6z"/>
	<path id="path7152" inkscape:connector-curvature="0" class="st14" d="M295-148c0,0-0.9,8.3,8.4,7.2c-2.3-1-4.3-1.2-3.8-7.2H295
		L295-148z"/>
	<path id="path7154" inkscape:connector-curvature="0" class="st14" d="M295-154.3c0,0-0.9-8.3,8.4-7.2c-2.3,1-4.3,1.2-3.8,7.2H295
		L295-154.3z"/>
	<polygon id="polygon7156" class="st14" points="316.3,-148 321.6,-144.8 321.6,-151.4 316.3,-154.3 	"/>
	<path id="path7158" inkscape:connector-curvature="0" class="st14" d="M293-100c-1.2,0-2.2,1-2.2,2.2v1.9c0,1.2,1,2.2,2.2,2.2h23.3
		v-6.3L293-100L293-100z M300.9-96.4c-4.2,0-7.6-0.2-7.6-0.5c0-0.3,3.4-0.5,7.6-0.5s7.6,0.2,7.6,0.5
		C308.6-96.6,305.1-96.4,300.9-96.4z"/>
	<path id="path7160" inkscape:connector-curvature="0" class="st14" d="M295-93.7c0,0-0.9,8.3,8.4,7.2c-2.3-1-4.3-1.2-3.8-7.2H295
		L295-93.7z"/>
	<path id="path7162" inkscape:connector-curvature="0" class="st14" d="M295-100c0,0-0.9-8.3,8.4-7.2c-2.3,1-4.3,1.2-3.8,7.2H295
		L295-100z"/>
	<polygon id="polygon7164" class="st14" points="316.3,-93.8 321.6,-90.5 321.6,-97.2 316.3,-100 	"/>
	<path id="path7166" inkscape:connector-curvature="0" class="st15" d="M316.3-75.3L316.3-75.3l-61.3,0h-3.1h-4.4
		c-1.3-1.7-3.4-2.8-5.7-2.8c-3.6,0-6.6,2.6-7.1,6.1c0,0.3-0.1,0.7-0.1,1c0,1.8,0.7,3.5,1.9,4.8h10.6h4.8h69.7L316.3-75.3L316.3-75.3
		z"/>
	<line id="line7168" class="st7" x1="235.2" y1="-72.6" x2="317.9" y2="-72.6"/>
	<line id="line7170" class="st7" x1="235.2" y1="-68.6" x2="320.2" y2="-68.6"/>
	<line id="line7172" class="st7" x1="235.2" y1="-70.6" x2="319.1" y2="-70.6"/>
	<path id="path7174" inkscape:connector-curvature="0" class="st11" d="M248-75.3h-12.8l1-5.9l10.6-2.5c0,0,0.7,1.4,1.3,1.7
		S248-75.3,248-75.3L248-75.3z"/>
	<rect id="rect7176" x="260.5" y="-72.6" class="st10" width="17.3" height="18.2"/>
	<polygon id="polygon7178" class="st16" points="277.8,-49.9 277.8,-59 260.5,-59 260.5,-49.9 269.1,-52.7 	"/>
</g>
</svg>
